<?xml version="1.0" encoding="UTF-8"?>
<svg width="16px" height="16px" viewBox="0 0 16 16" version="1.1" xmlns="http://www.w3.org/2000/svg">
    <!-- Generator: Sketch 52.3 (67297) - http://www.bohemiancoding.com/sketch -->
    <title>16-Image_DatasetCAD_Normal</title>
    <desc>Created with Sketch.</desc>
    <g id="Page-1" stroke="none" stroke-width="1" fill="none" fill-rule="evenodd">
        <g id="画板" transform="translate(-190.000000, -1773.000000)">
            <g id="16" transform="translate(14.000000, 1689.000000)">
                <g id="Dataset" transform="translate(0.000000, 84.000000)">
                    <g id="16-Image_DatasetCAD_Normal" transform="translate(176.000000, 0.000000)">
                        <g id="Image_DatasetCAD_Normal" transform="translate(0.000000, 1.000000)">
                            <path d="M5.35986328,8.24316406 L5.90673828,8.41064453 C5.78596945,8.97347287 5.57462716,9.39330916 5.27270508,9.67016602 C4.970783,9.94702287 4.60335503,10.0854492 4.17041016,10.0854492 C3.7898744,10.0854492 3.46460096,9.99259533 3.19458008,9.80688477 C2.9245592,9.6211742 2.70353276,9.32324424 2.53149414,8.91308594 C2.35945552,8.50292764 2.2734375,8.01872024 2.2734375,7.46044922 C2.2734375,6.90901417 2.35945552,6.4424661 2.53149414,6.06079102 C2.70353276,5.67911593 2.93652197,5.39087011 3.23046875,5.19604492 C3.52441553,5.00121973 3.85253725,4.90380859 4.21484375,4.90380859 C4.61133011,4.90380859 4.95198425,5.02742389 5.23681641,5.2746582 C5.52164856,5.52189251 5.72102808,5.88476323 5.83496094,6.36328125 L5.30175781,6.51708984 C5.11946523,5.81982073 4.75374624,5.47119141 4.20458984,5.47119141 C3.93115098,5.47119141 3.69417418,5.54125906 3.49365234,5.68139648 C3.29313051,5.8215339 3.13305724,6.03971206 3.01342773,6.3359375 C2.89379823,6.63216294 2.83398438,7.00699643 2.83398438,7.46044922 C2.83398438,8.14632504 2.9547514,8.6607242 3.19628906,9.00366211 C3.43782673,9.34660002 3.75911258,9.51806641 4.16015625,9.51806641 C4.45638169,9.51806641 4.71215713,9.41268009 4.92749023,9.2019043 C5.14282334,8.9911285 5.28694625,8.67155162 5.35986328,8.24316406 Z M6.13574219,10 L7.71484375,4.98925781 L8.29931641,4.98925781 L9.98095703,10 L9.35888672,10 L8.88037109,8.48242188 L7.16455078,8.48242188 L6.71337891,10 L6.13574219,10 Z M7.32177734,7.94238281 L8.71289062,7.94238281 L8.28564453,6.5546875 C8.15348241,6.1285786 8.05664093,5.7822279 7.99511719,5.515625 C7.94270807,5.83691567 7.86865282,6.1559229 7.77294922,6.47265625 L7.32177734,7.94238281 Z M10.4013672,10 L10.4013672,4.98925781 L11.8198242,4.98925781 C12.1707374,4.98925781 12.4373363,5.02001922 12.6196289,5.08154297 C12.8588879,5.16129597 13.0662426,5.30712785 13.2416992,5.51904297 C13.4171558,5.73095809 13.5538732,5.99812664 13.6518555,6.32055664 C13.7498377,6.64298664 13.7988281,7.02522565 13.7988281,7.46728516 C13.7988281,8.03467081 13.7156584,8.51602992 13.5493164,8.91137695 C13.3829744,9.30672398 13.1693535,9.58699462 12.9084473,9.75219727 C12.647541,9.91739991 12.3063172,10 11.8847656,10 L10.4013672,10 Z M10.9448242,9.40869141 L11.8198242,9.40869141 C12.1730161,9.40869141 12.4407543,9.35115617 12.6230469,9.23608398 C12.8053395,9.12101179 12.9454748,8.93587367 13.043457,8.68066406 C13.1733405,8.34114414 13.2382812,7.93440992 13.2382812,7.46044922 C13.2382812,6.95230866 13.1693529,6.55297997 13.0314941,6.26245117 C12.8936354,5.97192238 12.7164724,5.77766976 12.5,5.6796875 C12.3541659,5.61360644 12.1228857,5.58056641 11.8061523,5.58056641 L10.9448242,5.58056641 L10.9448242,9.40869141 Z"
                                  id="cad" fill="#F0F0F0"></path>
                            <rect id="矩形" stroke="#F0F0F0" fill-rule="nonzero" x="1.47509766" y="0.5" width="13"
                                  height="13" rx="1"></rect>
                        </g>
                    </g>
                </g>
            </g>
        </g>
    </g>
</svg>