<?xml version="1.0" encoding="UTF-8"?>
<svg width="16px" height="16px" viewBox="0 0 16 16" version="1.1" xmlns="http://www.w3.org/2000/svg">
    <!-- Generator: Sketch 52.3 (67297) - http://www.bohemiancoding.com/sketch -->
    <title>16-属性表</title>
    <desc>Created with Sketch.</desc>
    <g id="Page-1" stroke="none" stroke-width="1" fill="none" fill-rule="evenodd">
        <g id="画板" transform="translate(-386.000000, -1931.000000)" fill-rule="nonzero">
            <g id="16" transform="translate(32.000000, 1847.000000)">
                <g id="Dataset" transform="translate(2.000000, 84.000000)">
                    <g id="16-属性表" transform="translate(352.000000, 0.000000)">
                        <g id="分组-286" transform="translate(1.000000, 1.000000)">
                            <path d="M9,11 L9,9 L7,9 L7,11 L9,11 Z M10,11 L12,11 L12,9 L10,9 L10,11 Z M10,8 L12,8 L12,6 L13,6 L13,11 L13,12 L3,12 L3,11 L6,11 L6,9 L3,9 L3,8 L6,8 L6,6 L7,6 L7,8 L9,8 L9,6 L10,6 L10,8 Z"
                                  id="合并形状" fill="#F0F0F0"></path>
                            <rect id="矩形" stroke="#F0F0F0" x="0.5" y="0.5" width="14" height="13"></rect>
                            <rect id="矩形" stroke="#F0F0F0" x="0.5" y="0.5" width="14" height="3"></rect>
                        </g>
                    </g>
                </g>
            </g>
        </g>
    </g>
</svg>