<?xml version="1.0" encoding="UTF-8"?>
<svg width="16px" height="16px" viewBox="0 0 16 16" version="1.1" xmlns="http://www.w3.org/2000/svg">
    <!-- Generator: Sketch 52.3 (67297) - http://www.bohemiancoding.com/sketch -->
    <title>16-Image_DatasetUnknown_Normal</title>
    <desc>Created with Sketch.</desc>
    <g id="Page-1" stroke="none" stroke-width="1" fill="none" fill-rule="evenodd">
        <g id="画板" transform="translate(-14.000000, -1773.000000)">
            <g id="16" transform="translate(14.000000, 1689.000000)">
                <g id="Dataset" transform="translate(0.000000, 84.000000)">
                    <g id="16-Image_DatasetUnknown_Normal">
                        <g id="Image_DatasetUnknown_Normal" transform="translate(2.000000, 1.000000)">
                            <path d="M8.5,0.5 L0.5,0.5 L0.5,13.5 L11.5,13.5 L11.5,3.5 L8.5,3.5 L8.5,0.5 Z" id="合并形状"
                                  stroke="#F0F0F0" fill-rule="nonzero"></path>
                            <path d="M6.349,4.448 C6.934,4.448 7.411,4.601 7.771,4.925 C8.131,5.24 8.311,5.672 8.311,6.221 C8.311,6.671 8.194,7.04 7.978,7.328 C7.897,7.418 7.636,7.661 7.204,8.039 C7.042,8.174 6.925,8.327 6.844,8.489 C6.754,8.669 6.709,8.858 6.709,9.074 L6.709,9.2 L5.674,9.2 L5.674,9.074 C5.674,8.732 5.728,8.435 5.854,8.192 C5.971,7.949 6.322,7.571 6.907,7.049 L7.015,6.923 C7.177,6.725 7.258,6.509 7.258,6.284 C7.258,5.987 7.168,5.753 7.006,5.582 C6.835,5.411 6.592,5.33 6.286,5.33 C5.89,5.33 5.611,5.447 5.44,5.699 C5.287,5.906 5.215,6.203 5.215,6.581 L4.189,6.581 C4.189,5.915 4.378,5.393 4.774,5.015 C5.161,4.637 5.683,4.448 6.349,4.448 Z M6.187,9.641 C6.385,9.641 6.556,9.704 6.691,9.83 C6.817,9.956 6.889,10.118 6.889,10.316 C6.889,10.514 6.817,10.685 6.682,10.811 C6.547,10.937 6.385,11 6.187,11 C5.989,11 5.827,10.928 5.692,10.802 C5.557,10.676 5.494,10.514 5.494,10.316 C5.494,10.118 5.557,9.956 5.692,9.83 C5.827,9.704 5.989,9.641 6.187,9.641 Z"
                                  id="？" fill="#F0F0F0"></path>
                            <path d="M8.99633789,0.717590332 L11.3223267,3.03430176" id="直线-131" stroke="#F0F0F0"
                                  stroke-linecap="square" fill-rule="nonzero"></path>
                        </g>
                    </g>
                </g>
            </g>
        </g>
    </g>
</svg>