<?xml version="1.0" encoding="UTF-8"?>
<svg width="16px" height="16px" viewBox="0 0 16 16" version="1.1" xmlns="http://www.w3.org/2000/svg">
    <!-- Generator: Sketch 52.3 (67297) - http://www.bohemiancoding.com/sketch -->
    <title>16-Image_DatasetTopology_Normal</title>
    <desc>Created with Sketch.</desc>
    <g id="Page-1" stroke="none" stroke-width="1" fill="none" fill-rule="evenodd">
        <g id="画板" transform="translate(-36.000000, -1773.000000)" fill-rule="nonzero">
            <g id="16" transform="translate(14.000000, 1689.000000)">
                <g id="Dataset" transform="translate(0.000000, 84.000000)">
                    <g id="16-Image_DatasetTopology_Normal" transform="translate(22.000000, 0.000000)">
                        <g id="Image_DatasetTopology_Normal" transform="translate(1.000000, 1.000000)">
                            <path d="M5.5,3 C4.67157288,3 4,2.32842712 4,1.5 C4,0.671572875 4.67157288,0 5.5,0 C6.32842712,0 7,0.671572875 7,1.5 C7,2.32842712 6.32842712,3 5.5,3 Z M12.5,6 C11.6715729,6 11,5.32842712 11,4.5 C11,3.67157288 11.6715729,3 12.5,3 C13.3284271,3 14,3.67157288 14,4.5 C14,5.32842712 13.3284271,6 12.5,6 Z M8.5,14 C7.67157288,14 7,13.3284271 7,12.5 C7,11.6715729 7.67157288,11 8.5,11 C9.32842712,11 10,11.6715729 10,12.5 C10,13.3284271 9.32842712,14 8.5,14 Z M1.5,9 C0.671572875,9 0,8.32842712 0,7.5 C0,6.67157288 0.671572875,6 1.5,6 C2.32842712,6 3,6.67157288 3,7.5 C3,8.32842712 2.32842712,9 1.5,9 Z"
                                  id="合并形状" fill="#F0F0F0"></path>
                            <path d="M2,7.49023437 C6.23925781,7.69270833 9.48567708,6.86263021 11.7392578,5"
                                  id="路径-192" stroke="#F0F0F0"></path>
                            <path d="M5.75341797,1 L1,7.12890625 C2.93196615,10.7845052 4.8741862,12.6123047 6.82666016,12.6123047 C9.75537109,12.6123047 13.012207,8.23779297 13.012207,5.75683594 C13.012207,4.10286458 10.5926107,2.5172526 5.75341797,1 Z"
                                  id="路径-193" stroke="#F0F0F0"></path>
                        </g>
                    </g>
                </g>
            </g>
        </g>
    </g>
</svg>