<?xml version="1.0" encoding="UTF-8"?>
<svg width="16px" height="16px" viewBox="0 0 16 16" version="1.1" xmlns="http://www.w3.org/2000/svg">
    <!-- Generator: Sketch 52.3 (67297) - http://www.bohemiancoding.com/sketch -->
    <title>16-Image_DatasetLine3D_Normal</title>
    <desc>Created with Sketch.</desc>
    <g id="Page-1" stroke="none" stroke-width="1" fill="none" fill-rule="evenodd">
        <g id="画板" transform="translate(-410.000000, -1773.000000)" fill-rule="nonzero" stroke="#F0F0F0">
            <g id="16" transform="translate(14.000000, 1689.000000)">
                <g id="Dataset" transform="translate(0.000000, 84.000000)">
                    <g id="16-Image_DatasetLine3D_Normal" transform="translate(395.000000, 0.000000)">
                        <g id="Image_DatasetLine3D_Normal" transform="translate(0.000000, 1.000000)">
                            <g id="分组-186" transform="translate(0.000000, 5.000000)">
                                <path d="M5.49566011,0.5 L2.06304292,4.5 L12.7453067,4.5 L16.1779239,0.5 L5.49566011,0.5 Z"
                                      id="矩形"></path>
                                <path d="M9,2.5 L14.8486328,2.5 L14.4674061,1.67647848 L13.6187733,2.67647848 L14,2.5 L9,2.5 Z M9,2.5 L3.49133301,2.5 L3.93699092,3.22669147 L4.44565791,2.22669147 L4,2.5 L9,2.5 Z"
                                      id="矩形"></path>
                                <path d="M5.52380371,4.15087891 L8.5,0.709838867" id="直线-148"
                                      stroke-linecap="square"></path>
                                <path d="M9.39355469,4.26391602 L12.5,0.709838867" id="直线-149"
                                      stroke-linecap="square"></path>
                            </g>
                            <path d="M14.1174316,0.971435547 L4,13.5" id="直线-150" stroke-linecap="square"></path>
                        </g>
                    </g>
                </g>
            </g>
        </g>
    </g>
</svg>