<?xml version="1.0" encoding="UTF-8"?>
<svg width="16px" height="16px" viewBox="0 0 16 16" version="1.1" xmlns="http://www.w3.org/2000/svg">
    <!-- Generator: Sketch 52.3 (67297) - http://www.bohemiancoding.com/sketch -->
    <title>16-Image_AllDatasetsType_Normal</title>
    <desc>Created with Sketch.</desc>
    <g id="Page-1" stroke="none" stroke-width="1" fill="none" fill-rule="evenodd">
        <g id="画板" transform="translate(-234.000000, -1773.000000)" fill="#F0F0F0" fill-rule="nonzero">
            <g id="16" transform="translate(14.000000, 1689.000000)">
                <g id="Dataset" transform="translate(0.000000, 84.000000)">
                    <g id="16-Image_AllDatasetsType_Normal" transform="translate(220.000000, 0.000000)">
                        <g id="Image_AllDatasetsType_Normal" transform="translate(1.000000, 1.000000)">
                            <path d="M4,8.81705681 L4,9.82929429 C2.76390776,9.61084633 1.71372283,9.19562163 1,8.65889756 L1,9.34110244 L1,11 C1,11.3101724 1.25746392,11.7834051 2.09500443,12.2021753 C2.63219613,12.4707712 3.28189891,12.6802697 4,12.8170568 L4,13.8292943 C1.66961525,13.4174579 2.84217094e-14,12.3062188 2.84217094e-14,11 L2.84217094e-14,3.03430176 L0.00039028508,3.03457551 C0.000130326942,3.02306579 1.42108547e-14,3.01154051 1.42108547e-14,3 C1.42108547e-14,1.34314575 2.6862915,1.687539e-14 6,1.687539e-14 C9.3137085,1.687539e-14 12,1.34314575 12,3 C12,3.01157575 11.9998689,3.02313619 11.9996073,3.03468096 L11.9998028,7 L11,7 L11,4.65889756 C9.92507846,5.46724533 8.08697075,6 6,6 C3.91302925,6 2.07492154,5.46724533 1,4.65889756 L1,7.36804926 C1.18330153,7.62848515 1.54481641,7.9270813 2.09500443,8.20217531 C2.63219613,8.47077117 3.28189891,8.68026975 4,8.81705681 Z M6,5 C8.83228453,5 11,3.91614226 11,3 C11,2.08385774 8.83228453,1 6,1 C3.16771547,1 1,2.08385774 1,3 C1,3.91614226 3.16771547,5 6,5 Z"
                                  id="合并形状"></path>
                            <path d="M5,8 L14,8 L14,14 L5,14 L5,8 Z M8,12 L8,13 L9,13 L9,10 L8,10 L8,11 L7,11 L7,10 L6,10 L6,13 L7,13 L7,12 L8,12 Z M7,9 L7,10 L8,10 L8,9 L7,9 Z M10,9 L10,13 L11,13 L11,9 L10,9 Z M12,9 L12,13 L13,13 L13,9 L12,9 Z"
                                  id="合并形状"></path>
                        </g>
                    </g>
                </g>
            </g>
        </g>
    </g>
</svg>