<?xml version="1.0" encoding="UTF-8"?>
<svg width="16px" height="16px" viewBox="0 0 16 16" version="1.1" xmlns="http://www.w3.org/2000/svg">
    <!-- Generator: Sketch 52.3 (67297) - http://www.bohemiancoding.com/sketch -->
    <title>16-Icon_Error</title>
    <desc>Created with Sketch.</desc>
    <g id="Page-1" stroke="none" stroke-width="1" fill="none" fill-rule="evenodd">
        <g id="画板" transform="translate(-77.000000, -1993.000000)">
            <g id="16" transform="translate(32.000000, 1847.000000)">
                <g id="controlsresources" transform="translate(0.000000, 146.000000)">
                    <g id="16-Icon_Error" transform="translate(45.000000, 0.000000)">
                        <g id="分组-264" transform="translate(1.000000, 1.000000)">
                            <circle id="椭圆形" fill="#D0021B" fill-rule="nonzero" cx="7" cy="7" r="7"></circle>
                            <path d="M6.196,2.432 L7.816,2.432 L7.516,8.54 L6.496,8.54 L6.196,2.432 Z M7,9.188 C7.264,9.188 7.492,9.272 7.672,9.44 C7.84,9.608 7.936,9.824 7.936,10.088 C7.936,10.352 7.84,10.58 7.672,10.748 C7.48,10.916 7.264,11 7,11 C6.736,11 6.52,10.904 6.352,10.736 C6.16,10.568 6.076,10.352 6.076,10.088 C6.076,9.824 6.16,9.608 6.352,9.44 C6.52,9.272 6.736,9.188 7,9.188 Z"
                                  id="！" fill="#F0F0F0"></path>
                        </g>
                    </g>
                </g>
            </g>
        </g>
    </g>
</svg>