<?xml version="1.0" encoding="UTF-8"?>
<svg width="24px" height="24px" viewBox="0 0 24 24" version="1.1" xmlns="http://www.w3.org/2000/svg">
    <!-- Generator: Sketch 52.3 (67297) - http://www.bohemiancoding.com/sketch -->
    <title>Image_StartDatasource</title>
    <desc>Created with Sketch.</desc>
    <g id="Page-1" stroke="none" stroke-width="1" fill="none" fill-rule="evenodd">
        <g id="画板" transform="translate(-651.000000, -1741.000000)" fill-rule="nonzero">
            <g id="Image_StartDatasource" transform="translate(651.000000, 1741.000000)">
                <g id="Image" transform="translate(4.000000, 3.000000)">
                    <ellipse id="椭圆形" stroke="#F0F0F0" cx="8" cy="4" rx="7.5" ry="3.5"></ellipse>
                    <path d="M16,14.3229633 C16,16.3537346 12.418278,18 8,18 C3.581722,18 0,16.3537346 0,14.3229633 L0,4 L1.14285714,4.51753214 L1.14285714,9.42024773 C1.14285714,9.8004195 1.67661857,10.3804508 2.79333923,10.8937286 C4.13258645,11.5092863 5.99630218,11.8716055 8,11.8716055 C10.0036978,11.8716055 11.8674135,11.5092863 13.2066608,10.8937286 C14.3233814,10.3804508 14.8571429,9.8004195 14.8571429,9.42024773 L14.8571429,4.51753214 L16,4.02334056 L16,14.3229633 Z M14.8571429,14.3229633 L14.8571429,11.3152803 C13.4572604,12.3831082 10.9100859,13.0972844 8,13.0972844 C5.08991412,13.0972844 2.54273959,12.3831082 1.14285714,11.3152803 L1.14285714,12.4279307 L1.14285714,14.3229633 C1.14285714,14.7031351 1.67661857,15.2831664 2.79333923,15.7964442 C4.13258645,16.4120019 5.99630218,16.7743211 8,16.7743211 C10.0036978,16.7743211 11.8674135,16.4120019 13.2066608,15.7964442 C14.3233814,15.2831664 14.8571429,14.7031351 14.8571429,14.3229633 Z"
                          id="合并形状" fill="#F0F0F0"></path>
                </g>
            </g>
        </g>
    </g>
</svg>