<?xml version="1.0" encoding="UTF-8"?>
<svg width="16px" height="16px" viewBox="0 0 16 16" version="1.1" xmlns="http://www.w3.org/2000/svg">
    <!-- Generator: Sketch 52.3 (67297) - http://www.bohemiancoding.com/sketch -->
    <title>Image_Null</title>
    <desc>Created with Sketch.</desc>
    <g id="Page-1" stroke="none" stroke-width="1" fill="none" fill-rule="evenodd">
        <g id="画板" transform="translate(-1001.000000, -1933.000000)" fill="#F0F0F0">
            <g id="Image_Null" transform="translate(1001.000000, 1933.000000)">
                <path d="M2.835,11.372 L0.612,6.071 L0.585,6.071 L0.585,11.372 L-5.68434189e-14,11.372 L-5.68434189e-14,5 L0.783,5 L2.988,10.301 L3.015,10.301 L3.015,5 L3.591,5 L3.591,11.372 L2.835,11.372 Z M8.613,9.14 C8.613,9.47000165 8.58150031,9.78049855 8.5185,10.0715 C8.45549968,10.3625015 8.3535007,10.6159989 8.2125,10.832 C8.07149929,11.0480011 7.88400117,11.2174994 7.65,11.3405 C7.41599883,11.4635006 7.12800171,11.525 6.786,11.525 C6.44399829,11.525 6.15750115,11.4635006 5.9265,11.3405 C5.69549884,11.2174994 5.5095007,11.0480011 5.3685,10.832 C5.22749929,10.6159989 5.1270003,10.3625015 5.067,10.0715 C5.0069997,9.78049855 4.977,9.47000165 4.977,9.14 L4.977,5 L5.607,5 L5.607,9.059 C5.607,9.29300117 5.62349983,9.52399886 5.6565,9.752 C5.68950016,9.98000114 5.74949956,10.1824991 5.8365,10.3595 C5.92350043,10.5365009 6.04349923,10.6789995 6.1965,10.787 C6.34950076,10.8950005 6.54899877,10.949 6.795,10.949 C7.0350012,10.949 7.23299922,10.8950005 7.389,10.787 C7.54500078,10.6789995 7.66649956,10.5365009 7.7535,10.3595 C7.84050043,10.1824991 7.90049983,9.98150113 7.9335,9.7565 C7.96650016,9.53149888 7.983,9.2990012 7.983,9.059 L7.983,5 L8.613,5 L8.613,9.14 Z M9.999,11.372 L9.999,5 L10.629,5 L10.629,10.787 L12.447,10.787 L12.447,11.372 L9.999,11.372 Z M13.212,11.372 L13.212,5 L13.842,5 L13.842,10.787 L15.66,10.787 L15.66,11.372 L13.212,11.372 Z"
                      id="null"></path>
            </g>
        </g>
    </g>
</svg>