<?xml version="1.0" encoding="UTF-8"?>
<svg width="24px" height="24px" viewBox="0 0 24 24" version="1.1" xmlns="http://www.w3.org/2000/svg">
    <!-- Generator: Sketch 52.3 (67297) - http://www.bohemiancoding.com/sketch -->
    <title>Image_StartRecent_Workspace</title>
    <desc>Created with Sketch.</desc>
    <g id="Page-1" stroke="none" stroke-width="1" fill="none" fill-rule="evenodd">
        <g id="画板" transform="translate(-594.000000, -1741.000000)" fill-rule="nonzero">
            <g id="Image_StartRecent_Workspace" transform="translate(594.000000, 1741.000000)">
                <g id="分组-204" transform="translate(3.000000, 3.000000)">
                    <path d="M2,1 L2,17 L16,17 L16,4.10134125 L12.8986588,1 L2,1 Z M13.3128723,0 L17,3.68712769 L17,17 C17,17.5522847 16.5522847,18 16,18 L2,18 C1.44771525,18 1,17.5522847 1,17 L1,1 C1,0.44771525 1.44771525,0 2,0 L13.3128723,0 Z"
                          id="合并形状" fill="#F0F0F0"></path>
                    <path d="M12.5,2 L12.5,4.5 L12.75,4.5 L12,4.5 L12.5,5 L12.5,2 Z M15,4.5 L17,4.5 L16.5,4 L16.5,5 L17,4.5 L15,4.5 Z M12.5,2 L12.5,0 L12,0.5 L13,0.5 L12.5,0 L12.5,2 Z"
                          id="合并形状" stroke="#F0F0F0"></path>
                    <path d="M9,8 L13,8 C13.5522847,8 14,8.44771525 14,9 L14,12 C14,12.5522847 13.5522847,13 13,13 L9,13 C8.44771525,13 8,12.5522847 8,12 L8,9 C8,8.44771525 8.44771525,8 9,8 Z M10,5 L6,5 C5.44771525,5 5,5.44771525 5,6 L5,9 C4.44771525,9 4,8.55228475 4,8 L4,5 C4,4.44771525 4.44771525,4 5,4 L9,4 C9.55228475,4 10,4.44771525 10,5 Z M12,7 L8,7 C7.44771525,7 7,7.44771525 7,8 L7,11 C6.44771525,11 6,10.5522847 6,10 L6,7 C6,6.44771525 6.44771525,6 7,6 L11,6 C11.5522847,6 12,6.44771525 12,7 Z"
                          id="合并形状" fill="#F0F0F0"></path>
                    <rect id="矩形" fill="#F0F0F0" x="0" y="14" width="18" height="4"></rect>
                </g>
            </g>
        </g>
    </g>
</svg>