<?xml version="1.0" encoding="UTF-8"?>
<svg width="16px" height="16px" viewBox="0 0 16 16" version="1.1" xmlns="http://www.w3.org/2000/svg">
    <!-- Generator: Sketch 52.3 (67297) - http://www.bohemiancoding.com/sketch -->
    <title>16-Image_FolderConnect</title>
    <desc>Created with Sketch.</desc>
    <g id="Page-1" stroke="none" stroke-width="1" fill="none" fill-rule="evenodd">
        <g id="画板" transform="translate(-14.000000, -1778.000000)" fill="#F0F0F0" fill-rule="nonzero">
            <g id="16" transform="translate(14.000000, 1713.000000)">
                <g id="Catalog" transform="translate(0.000000, 65.000000)">
                    <g id="16-Image_FolderConnect">
                        <g id="Image_FolderConnect" transform="translate(0.000000, 3.000000)">
                            <path d="M2,5.73243561 L2,6.82929429 C0.834807627,6.41745788 0,5.30621883 0,4 L0,3 C0,1.34314575 1.34314575,0 3,0 L9,0 C10.6568542,0 12,1.34314575 12,3 L12,4 C12,5.65685425 10.6568542,7 9,7 L6,7 L6,6 L9,6 C10.1045695,6 11,5.1045695 11,4 L11,3 C11,1.8954305 10.1045695,1 9,1 L3,1 C1.8954305,1 1,1.8954305 1,3 L1,4 C1,4.74028236 1.40219863,5.38662619 2,5.73243561 Z"
                                  id="合并形状"></path>
                            <path d="M13,5.26756439 L13,4.17070571 C14.1651924,4.58254212 15,5.69378117 15,7 L15,8 C15,9.65685425 13.6568542,11 12,11 L6,11 C4.34314575,11 3,9.65685425 3,8 L3,7 C3,5.34314575 4.34314575,4 6,4 L9,4 L9,5 L6,5 C4.8954305,5 4,5.8954305 4,7 L4,8 C4,9.1045695 4.8954305,10 6,10 L12,10 C13.1045695,10 14,9.1045695 14,8 L14,7 C14,6.25971764 13.5978014,5.61337381 13,5.26756439 Z"
                                  id="合并形状"></path>
                        </g>
                    </g>
                </g>
            </g>
        </g>
    </g>
</svg>