<?xml version="1.0" encoding="UTF-8"?>
<svg width="16px" height="16px" viewBox="0 0 16 16" version="1.1" xmlns="http://www.w3.org/2000/svg">
    <!-- Generator: Sketch 52.3 (67297) - http://www.bohemiancoding.com/sketch -->
    <title>16-ForegroundColor</title>
    <desc>Created with Sketch.</desc>
    <g id="Page-1" stroke="none" stroke-width="1" fill="none" fill-rule="evenodd">
        <g id="画板" transform="translate(-539.000000, -1868.000000)" fill-rule="nonzero">
            <g id="controlsImage" transform="translate(33.000000, 1852.000000)">
                <g id="16-ForegroundColor" transform="translate(506.000000, 16.000000)">
                    <g id="分组-158" transform="translate(0.000000, 1.000000)">
                        <path d="M4.3696294,3.89090867 C4.09803234,3.8948349 3.87924779,4.11487496 3.87687575,4.38649004 L3.80758127,12.3211664 C3.80755305,12.3269634 3.80755305,12.3269634 3.80761444,12.3327601 C3.81160596,12.6088736 4.03867597,12.8294721 4.31478949,12.8254806 L10.036523,12.7427667 C10.3081201,12.7388405 10.5269046,12.5188005 10.5292767,12.2471854 L10.5985711,4.31250898 C10.5985994,4.30671201 10.5985994,4.30671201 10.598538,4.3009153 C10.5945465,4.02480177 10.3674764,3.8042033 10.0913629,3.80819482 L4.3696294,3.89090867 Z"
                              id="矩形" stroke="#F0F0F0"
                              transform="translate(7.203076, 8.316838) rotate(-315.000000) translate(-7.203076, -8.316838) "></path>
                        <path d="M11,9 L6.58,13.5128174 L2,9 L11,9 Z M12.8954613,13.0886954 C12.0179856,13.0886954 11.306651,12.3732355 11.306651,11.4906709 C11.306651,10.6081064 12.650468,9 12.8954613,9 C13.1404546,9 14.4842716,10.6081064 14.4842716,11.4906709 C14.4842716,12.3732355 13.772937,13.0886954 12.8954613,13.0886954 Z"
                              id="合并形状" fill="#F0F0F0"></path>
                        <path d="M8.0604248,5.97058105 L2.5,0.5" id="直线-206" stroke="#F0F0F0"
                              stroke-linecap="round"></path>
                    </g>
                </g>
            </g>
        </g>
    </g>
</svg>