<?xml version="1.0" encoding="UTF-8"?>
<svg width="16px" height="16px" viewBox="0 0 16 16" version="1.1" xmlns="http://www.w3.org/2000/svg">
    <!-- Generator: Sketch 52.3 (67297) - http://www.bohemiancoding.com/sketch -->
    <title>16-Image_Layer_LayerSnapshot</title>
    <desc>Created with Sketch.</desc>
    <g id="Page-1" stroke="none" stroke-width="1" fill="none" fill-rule="evenodd">
        <g id="画板" transform="translate(-275.000000, -1868.000000)" fill-rule="nonzero" stroke="#F0F0F0">
            <g id="controlsImage" transform="translate(33.000000, 1852.000000)">
                <g id="16-Image_Layer_LayerSnapshot" transform="translate(242.000000, 16.000000)">
                    <g id="分组-194" transform="translate(0.000000, 1.000000)">
                        <circle id="椭圆形" cx="8" cy="8" r="2.5"></circle>
                        <path d="M3.5,1.5 L2.5,1.5 L2.5,2.5 L1,2.5 C0.723857625,2.5 0.5,2.72385763 0.5,3 L0.5,13 C0.5,13.2761424 0.723857625,13.5 1,13.5 L15,13.5 C15.2761424,13.5 15.5,13.2761424 15.5,13 L15.5,3 C15.5,2.72385763 15.2761424,2.5 15,2.5 L11.5,2.5 L11.5,1 C11.5,0.723857625 11.2761424,0.5 11,0.5 L6,0.5 C5.72385763,0.5 5.5,0.723857625 5.5,1 L5.5,2.5 L3.5,2.5 L3.5,1.5 Z"
                              id="合并形状"></path>
                    </g>
                </g>
            </g>
        </g>
    </g>
</svg>