<?xml version="1.0" encoding="UTF-8"?>
<svg width="16px" height="16px" viewBox="0 0 16 16" version="1.1" xmlns="http://www.w3.org/2000/svg">
    <!-- Generator: Sketch 52.3 (67297) - http://www.bohemiancoding.com/sketch -->
    <title>16-Image_ThemeGuide_RangeLabel_Split</title>
    <desc>Created with Sketch.</desc>
    <g id="Page-1" stroke="none" stroke-width="1" fill="none" fill-rule="evenodd">
        <g id="画板" transform="translate(-429.000000, -1868.000000)" fill-rule="nonzero" stroke="#F0F0F0">
            <g id="controlsImage" transform="translate(33.000000, 1852.000000)">
                <g id="16-Image_ThemeGuide_RangeLabel_Split" transform="translate(396.000000, 16.000000)">
                    <g id="分组-270" transform="translate(1.000000, 1.000000)">
                        <g id="分组-269" transform="translate(10.000000, 0.000000)">
                            <path d="M2.06347656,1.5 L2.06347656,6.03515625" id="直线-201" stroke-linecap="square"></path>
                            <polyline id="路径-232"
                                      points="0.115722656 2.9708252 2.00854492 0.968139648 4.01123047 2.9708252"></polyline>
                        </g>
                        <g id="分组-269"
                           transform="translate(11.570679, 10.799561) rotate(-180.000000) translate(-11.570679, -10.799561) translate(9.070679, 7.299561)">
                            <path d="M2.06347656,1.5 L2.06347656,6.19848633" id="直线-201" stroke-linecap="square"></path>
                            <polyline id="路径-232"
                                      points="0.115722656 2.9708252 2.00854492 0.968139648 4.01123047 2.9708252"></polyline>
                        </g>
                        <path d="M4.5,8.75 L4.5,8.5 L8.5,8.5 L8.5,5.5 L4.5,5.5 L4.5,5.25 L4.5,5.5 L0.5,5.5 L0.5,8.5 L4.5,8.5 L4.5,8.75 Z M4.5,2.75 L4.5,2.5 L7.5,2.5 L7.5,0.5 L1.5,0.5 L1.5,2.5 L4.5,2.5 L4.5,2.75 Z M4.5,11.25 L4.5,11.5 L1.5,11.5 L1.5,13.5 L7.5,13.5 L7.5,11.5 L4.5,11.5 L4.5,11.25 Z"
                              id="合并形状"></path>
                    </g>
                </g>
            </g>
        </g>
    </g>
</svg>