<?xml version="1.0" encoding="UTF-8"?>
<svg width="16px" height="16px" viewBox="0 0 16 16" version="1.1" xmlns="http://www.w3.org/2000/svg">
    <!-- Generator: Sketch 52.3 (67297) - http://www.bohemiancoding.com/sketch -->
    <title>16-Image_GlobalImage</title>
    <desc>Created with Sketch.</desc>
    <g id="Page-1" stroke="none" stroke-width="1" fill="none" fill-rule="evenodd">
        <g id="画板" transform="translate(-605.000000, -1868.000000)" fill="#F0F0F0" fill-rule="nonzero">
            <g id="controlsImage" transform="translate(33.000000, 1852.000000)">
                <g id="16-Image_GlobalImage" transform="translate(572.000000, 16.000000)">
                    <g id="分组-273" transform="translate(1.000000, 1.000000)">
                        <path d="M2,14 C2.87336918,11.6696153 5.2299407,10 8,10 C10.7700593,10 13.1266308,11.6696153 14,14 L2,14 Z"
                              id="合并形状"></path>
                        <path d="M14.9985714,11.9129356 C13.5084266,9.38610209 10.71948,7.68556111 7.52480039,7.68556111 C4.29356512,7.68556111 1.4774013,9.4252422 0.000387213676,12 L0.000387213676,11.775407 C-0.0113679,9.66354369 0.244525134,8.19051216 0.768066317,7.35631241 C1.2916075,6.52211267 1.43696738,5.08471969 1.20414594,3.04413348 C2.84442293,5.55033952 3.96984348,6.52314318 4.58040759,5.96254446 C4.96017644,5.61385392 5.60104451,5.19091933 6.44394401,3.64311879 C6.7854451,3.01602673 7.10467539,1.80165381 7.40163487,0 C8.75978913,2.38992989 9.43886626,3.82895451 9.43886626,4.31707386 C9.43886626,5.04925289 15,4.66719044 15,11.775407 C15,11.8216543 14.9995238,11.8674971 14.9985714,11.9129356 Z"
                              id="合并形状"></path>
                    </g>
                </g>
            </g>
        </g>
    </g>
</svg>