<?xml version="1.0" encoding="UTF-8"?>
<svg width="16px" height="16px" viewBox="0 0 16 16" version="1.1" xmlns="http://www.w3.org/2000/svg">
    <!-- Generator: Sketch 52.3 (67297) - http://www.bohemiancoding.com/sketch -->
    <title>16-Image_Layer3DManager_ImageLayer3DMap</title>
    <desc>Created with Sketch.</desc>
    <g id="Page-1" stroke="none" stroke-width="1" fill="none" fill-rule="evenodd">
        <g id="画板" transform="translate(-1023.000000, -1868.000000)" fill="#F0F0F0" fill-rule="nonzero">
            <g id="controlsImage" transform="translate(33.000000, 1852.000000)">
                <g id="16-Image_Layer3DManager_ImageLayer3DMap" transform="translate(990.000000, 16.000000)">
                    <g id="分组-284" transform="translate(0.000000, 1.000000)">
                        <g id="Image_Map_Normal" transform="translate(0.902832, 0.000000)">
                            <path d="M8.13191624,13 L8.13191624,14 L1,14 C0.44771525,14 -7.54951657e-14,13.5522847 -7.54951657e-14,13 L-7.54951657e-14,1 C-7.54951657e-14,0.44771525 0.44771525,2.04281037e-14 1,2.04281037e-14 L13,2.04281037e-14 C13.5522847,2.04281037e-14 14,0.44771525 14,1 L14,7.85708647 L13,7.2797362 L13,1 L1,1 L1,13 L8.13191624,13 Z"
                                  id="合并形状"></path>
                            <path d="M11.5308545,7.3655945 L8.13191624,9.32797241 L8.13191624,10.5625534 C7.65085633,9.93008278 7.13390843,10.4234967 7.01730556,9.66700424 C6.92320871,9.05652563 7.21284187,8.37626008 7.88620503,7.62620758 C9.79164568,6.88975272 11.0065288,6.80288169 11.5308545,7.3655945 Z M2,12 L2,2 L12,2 C11.6710369,3.78823603 10.8714301,4.68235405 9.60117971,4.68235405 C9.02737582,4.68235405 7.9579219,4.68469556 7.56841557,5.2541136 C6.3470718,7.03959213 4.34627872,5.89814778 3.97427446,8.28555115 C3.75481166,9.69399255 5.94854891,12 3.97427446,12 C2.65809149,12 2,12 2,12 Z"
                                  id="合并形状"></path>
                        </g>
                        <path d="M16.0468147,9.7411301 L13.1221258,11.5105225 L10.0364057,9.72898115 L13.0310889,8 L16.0468147,9.7411301 Z M16.0621778,10.8349969 L16.0621778,13.25 L13.5310889,14.7113249 L13.5310889,12.3548503 L16.0621778,10.8349969 Z M12.5310889,14.7113249 L10,13.25 L10,10.8626628 L12.5310889,12.3239877 L12.5310889,14.7113249 Z"
                              id="合并形状"></path>
                    </g>
                </g>
            </g>
        </g>
    </g>
</svg>