<?xml version="1.0" encoding="UTF-8"?>
<svg xmlns:xlink="http://www.w3.org/1999/xlink" width="32px" height="32px" viewBox="0 0 32 32" version="1.1"
     xmlns="http://www.w3.org/2000/svg">
    <!-- Generator: Sketch 52.3 (67297) - http://www.bohemiancoding.com/sketch -->
    <title>32-Image_ThemeGuide_ThemeGridUnique</title>
    <desc>Created with Sketch.</desc>
    <defs>
        <linearGradient x1="112.689887%" y1="-13.4168837%" x2="0%" y2="100%" id="linearGradient-1">
            <stop stop-color="#FFFFFF" stop-opacity="0.5" offset="0%"></stop>
            <stop stop-color="#000000" stop-opacity="0.5" offset="100%"></stop>
        </linearGradient>
        <rect id="path-2" x="4" y="4" width="18" height="18"></rect>
    </defs>
    <g id="Page-1" stroke="none" stroke-width="1" fill="none" fill-rule="evenodd">
        <g id="画板" transform="translate(-1107.000000, -1852.000000)" fill-rule="nonzero">
            <g id="controlsImage" transform="translate(33.000000, 1852.000000)">
                <g id="32-Image_ThemeGuide_ThemeGridUnique" transform="translate(1074.000000, 0.000000)">
                    <g id="分组-263" transform="translate(3.000000, 3.000000)">
                        <rect id="矩形" stroke="#F0F0F0" x="0.5" y="0.5" width="25" height="25" rx="1"></rect>
                        <g id="矩形">
                            <use fill="#D8D8D8" xlink:href="#path-2"></use>
                            <use fill="url(#linearGradient-1)" xlink:href="#path-2"></use>
                        </g>
                        <path d="M4,4 L4,22 L22,22 L22,4 L4,4 Z M3,3 L23,3 L23,23 L3,23 L3,3 Z" id="矩形"
                              fill="#F0F0F0"></path>
                        <path d="M18.75,18.5 L18.5,18.5 L18.5,13.5 L18.75,13.5 L18.5,13.5 L18.5,8.5 L18.75,8.5 L18.5,8.5 L18.5,6 L18.5,8.5 L13.5,8.5 L13.5,8.25 L13.5,8.5 L8.5,8.5 L8.5,8.25 L8.5,8.5 L8.25,8.5 L8.5,8.5 L8.5,13.5 L8.25,13.5 L8.5,13.5 L8.5,18.5 L8.25,18.5 L8.5,18.5 L8.5,18.75 L8.5,18.5 L13.5,18.5 L13.5,18.75 L13.5,18.5 L18.5,18.5 L18.5,18.75 L18.5,18.5 L18.75,18.5 Z M8.25,18.5 L6,18.5 L8,18.5 L8.25,18.5 Z M18.5,13.5 L18.5,18.5 L13.5,18.5 L13.5,13.5 L18.5,13.5 Z M13.5,13.5 L13.5,18.5 L8.5,18.5 L8.5,13.5 L13.5,13.5 Z M13.5,13.5 L8.5,13.5 L8.5,8.5 L13.5,8.5 L13.5,13.5 Z M13.5,13.5 L13.5,8.5 L18.5,8.5 L18.5,13.5 L13.5,13.5 Z"
                              id="合并形状" stroke="#F0F0F0"></path>
                    </g>
                </g>
            </g>
        </g>
    </g>
</svg>