<?xml version="1.0" encoding="UTF-8"?>
<svg width="16px" height="16px" viewBox="0 0 16 16" version="1.1" xmlns="http://www.w3.org/2000/svg">
    <!-- Generator: Sketch 52.3 (67297) - http://www.bohemiancoding.com/sketch -->
    <title>16-Image_OtherColor_Icon</title>
    <desc>Created with Sketch.</desc>
    <g id="Page-1" stroke="none" stroke-width="1" fill="none" fill-rule="evenodd">
        <g id="画板" transform="translate(-583.000000, -1868.000000)" fill-rule="nonzero" stroke="#F0F0F0">
            <g id="controlsImage" transform="translate(33.000000, 1852.000000)">
                <g id="16-Image_OtherColor_Icon" transform="translate(550.000000, 16.000000)">
                    <g id="合并形状-3" transform="translate(1.000000, 1.000000)">
                        <path d="M13.4934383,6.70529813 C13.3393576,3.25222391 10.491087,0.5 7,0.5 C3.41014913,0.5 0.5,3.41014913 0.5,7 C0.5,10.491087 3.25222391,13.3393576 6.70529813,13.4934383 C6.56979018,13.0121435 6.5,12.5107619 6.5,12 C6.5,8.96243388 8.96243388,6.5 12,6.5 C12.5107619,6.5 13.0121435,6.56979018 13.4934383,6.70529813 Z"
                              id="合并形状"></path>
                        <path d="M7,4 C6.44771525,4 6,3.55228475 6,3 C6,2.44771525 6.44771525,2 7,2 C7.55228475,2 8,2.44771525 8,3 C8,3.55228475 7.55228475,4 7,4 Z M4,6 C3.44771525,6 3,5.55228475 3,5 C3,4.44771525 3.44771525,4 4,4 C4.55228475,4 5,4.44771525 5,5 C5,5.55228475 4.55228475,6 4,6 Z M4,10 C3.44771525,10 3,9.55228475 3,9 C3,8.44771525 3.44771525,8 4,8 C4.55228475,8 5,8.44771525 5,9 C5,9.55228475 4.55228475,10 4,10 Z"
                              id="合并形状"></path>
                    </g>
                </g>
            </g>
        </g>
    </g>
</svg>