<?xml version="1.0" encoding="UTF-8"?>
<svg width="16px" height="16px" viewBox="0 0 16 16" version="1.1" xmlns="http://www.w3.org/2000/svg">
    <!-- Generator: Sketch 52.3 (67297) - http://www.bohemiancoding.com/sketch -->
    <title>16-Image_LayerCache_Normal</title>
    <desc>Created with Sketch.</desc>
    <g id="Page-1" stroke="none" stroke-width="1" fill="none" fill-rule="evenodd">
        <g id="画板" transform="translate(-759.000000, -1868.000000)" fill-rule="nonzero">
            <g id="controlsImage" transform="translate(33.000000, 1852.000000)">
                <g id="16-Image_LayerCache_Normal" transform="translate(726.000000, 16.000000)">
                    <g id="分组-280" transform="translate(1.000000, 1.000000)">
                        <g id="矩形-9">
                            <path d="M8,11.6921244 L7.15685425,12.2361794 L2.47192899,9.21314663 L1.84437109,9.61808972 L7.15685425,13.0460656 L8,12.5020106 L8,13.6921244 L7.15685425,14.2361794 L-4.88853402e-12,9.61808972 L1.54974344,8.61808972 L-4.88853402e-12,7.61808972 L2.32461516,6.11808972 L3.24680071,6.71314663 L1.84437109,7.61808972 L7.15685425,11.0460656 L8,10.5020106 L8,11.6921244 Z M11.8774744,8 L12.4693374,7.61808972 L11.0669078,6.71314663 L11.9890933,6.11808972 L14.3137085,7.61808972 L13.7218455,8 L11.8774744,8 Z"
                                  id="合并形状" fill="#F0F0F0"></path>
                            <path d="M7.15685425,0.595056912 L0.922185547,4.61808972 L7.15685425,8.64112252 L13.391523,4.61808972 L7.15685425,0.595056912 Z"
                                  id="矩形" stroke="#F0F0F0"></path>
                        </g>
                        <rect id="矩形" stroke="#F0F0F0" x="9.5" y="9.5" width="4" height="4"></rect>
                        <rect id="矩形" fill="#F0F0F0" x="11" y="11" width="1" height="1"></rect>
                    </g>
                </g>
            </g>
        </g>
    </g>
</svg>