<?xml version="1.0" encoding="UTF-8"?>
<svg width="16px" height="16px" viewBox="0 0 16 16" version="1.1" xmlns="http://www.w3.org/2000/svg">
    <!-- Generator: Sketch 52.3 (67297) - http://www.bohemiancoding.com/sketch -->
    <title>16-Image_Layer3DManager_KMLLayer</title>
    <desc>Created with Sketch.</desc>
    <g id="Page-1" stroke="none" stroke-width="1" fill="none" fill-rule="evenodd">
        <g id="画板" transform="translate(-825.000000, -1868.000000)">
            <g id="controlsImage" transform="translate(33.000000, 1852.000000)">
                <g id="16-Image_Layer3DManager_KMLLayer" transform="translate(792.000000, 16.000000)">
                    <g id="分组-279" transform="translate(1.097168, 1.000000)">
                        <rect id="矩形" stroke="#F0F0F0" fill-rule="nonzero" x="0.5" y="0.5" width="13" height="13"
                              rx="1"></rect>
                        <path d="M1.43945312,9 L1.43945312,4.70507812 L2.0078125,4.70507812 L2.0078125,6.83496094 L4.140625,4.70507812 L4.91113281,4.70507812 L3.109375,6.4453125 L4.99023438,9 L4.24023438,9 L2.7109375,6.82617188 L2.0078125,7.51171875 L2.0078125,9 L1.43945312,9 Z M5.44726562,9 L5.44726562,4.70507812 L6.30273438,4.70507812 L7.31933594,7.74609375 C7.41308641,8.02929829 7.4814451,8.24121023 7.52441406,8.38183594 C7.57324243,8.22558516 7.64941354,7.99609526 7.75292969,7.69335938 L8.78125,4.70507812 L9.54589844,4.70507812 L9.54589844,9 L8.99804688,9 L8.99804688,5.40527344 L7.75,9 L7.23730469,9 L5.99511719,5.34375 L5.99511719,9 L5.44726562,9 Z M10.4394531,9 L10.4394531,4.70507812 L11.0078125,4.70507812 L11.0078125,8.49316406 L13.1230469,8.49316406 L13.1230469,9 L10.4394531,9 Z"
                              id="kml" fill="#F0F0F0"></path>
                    </g>
                </g>
            </g>
        </g>
    </g>
</svg>