<?xml version="1.0" encoding="UTF-8"?>
<svg width="16px" height="16px" viewBox="0 0 16 16" version="1.1" xmlns="http://www.w3.org/2000/svg">
    <!-- Generator: Sketch 52.3 (67297) - http://www.bohemiancoding.com/sketch -->
    <title>16-Image_Layer3DManager_Model</title>
    <desc>Created with Sketch.</desc>
    <g id="Page-1" stroke="none" stroke-width="1" fill="none" fill-rule="evenodd">
        <g id="画板" transform="translate(-979.000000, -1868.000000)" fill-rule="nonzero">
            <g id="controlsImage" transform="translate(33.000000, 1852.000000)">
                <g id="16-Image_Layer3DManager_Model" transform="translate(946.000000, 16.000000)">
                    <g id="合并形状-5" transform="translate(0.000000, 1.000000)">
                        <path d="M10,10 L10,11 L12,11 L12,6 L10,6 L10,7 L12,7 L12,8 L10,8 L10,9 L12,9 L12,10 L10,10 Z M7,10 L7,11 L9,11 L9,10 L7,10 Z M7,9 L9,9 L9,8 L7,8 L7,9 Z M7,7 L9,7 L9,5 L9,4 L7,4 L7,7 Z M3.90283203,9 L5.90283203,9 L5.90283203,8 L5,8 L3.90283203,8 L3.90283203,9 Z M3.90283203,10 L3.90283203,11 L5.90283203,11 L5.90283203,10 L3.90283203,10 Z M10,12 L6,12 L2.90283203,12 L2.90283203,7 L6,7 L6,3 L10,3 L10,5 L13,5 L13,12 L10,12 Z"
                              id="合并形状" fill="#F0F0F0"></path>
                        <rect id="矩形" stroke="#F0F0F0" x="1.30566406" y="0.5" width="13" height="13" rx="1"></rect>
                    </g>
                </g>
            </g>
        </g>
    </g>
</svg>