<?xml version="1.0" encoding="UTF-8"?>
<svg width="16px" height="16px" viewBox="0 0 16 16" version="1.1" xmlns="http://www.w3.org/2000/svg">
    <!-- Generator: Sketch 52.3 (67297) - http://www.bohemiancoding.com/sketch -->
    <title>16-Image_WorkspaceDefault_Normal</title>
    <desc>Created with Sketch.</desc>
    <g id="Page-1" stroke="none" stroke-width="1" fill="none" fill-rule="evenodd">
        <g id="画板" transform="translate(-671.000000, -1868.000000)" fill-rule="nonzero">
            <g id="controlsImage" transform="translate(33.000000, 1852.000000)">
                <g id="16-Image_WorkspaceDefault_Normal" transform="translate(638.000000, 16.000000)">
                    <g id="分组-274" transform="translate(0.805664, 1.000000)">
                        <g id="合并形状-4" transform="translate(0.000000, 1.000000)" fill="#F0F0F0">
                            <path d="M3,11 L3,12 L0,12 L0,0 L14,0 L14,5 L13,5 L13,1 L1,1 L1,11 L3,11 Z"
                                  id="合并形状"></path>
                        </g>
                        <rect id="矩形" fill="#F0F0F0" x="0" y="0" width="14" height="2"></rect>
                        <g id="分组-275" transform="translate(4.000000, 6.000000)">
                            <path d="M5.5,0.5 L0.5,0.5 L0.5,7.5 L8.5,7.5 L8.5,1.5 L5.5,1.5 L5.5,0.5 Z" id="合并形状"
                                  stroke="#F0F0F0"></path>
                            <polygon id="矩形" fill="#F0F0F0"
                                     points="2.12451172 3 11.1245117 3 9 8 -1.1539214e-11 8"></polygon>
                        </g>
                    </g>
                </g>
            </g>
        </g>
    </g>
</svg>