<?xml version="1.0" encoding="UTF-8"?>
<svg xmlns:xlink="http://www.w3.org/1999/xlink" width="16px" height="16px" viewBox="0 0 16 16" version="1.1"
     xmlns="http://www.w3.org/2000/svg">
    <!-- Generator: Sketch 52.3 (67297) - http://www.bohemiancoding.com/sketch -->
    <title>16-Image_Layer_Heatmap</title>
    <desc>Created with Sketch.</desc>
    <defs>
        <rect id="path-1" x="0" y="0" width="14" height="14" rx="1"></rect>
    </defs>
    <g id="Page-1" stroke="none" stroke-width="1" fill="none" fill-rule="evenodd">
        <g id="画板" transform="translate(-891.000000, -1868.000000)">
            <g id="controlsImage" transform="translate(33.000000, 1852.000000)">
                <g id="16-Image_Layer_Heatmap" transform="translate(858.000000, 16.000000)">
                    <g id="热力图" transform="translate(0.805664, 1.000000)">
                        <rect id="矩形" stroke="#F0F0F0" fill-rule="nonzero" x="0.694335938" y="0.5" width="13"
                              height="13" rx="1"></rect>
                        <g id="路径-97-+-路径-97-+-路径-97-+-路径-97-+-路径-97-Mask" transform="translate(0.194336, 0.000000)">
                            <mask id="mask-2" fill="white">
                                <use xlink:href="#path-1"></use>
                            </mask>
                            <g id="Mask" fill-rule="nonzero"></g>
                            <path d="M2.48894722,11.7376457 C-2.17780185,9.77029028 -6.44881616,7.48137634 -4.25300222,1.80444604 C-2.05718828,-3.87248425 4.63504999,-7.48882659 8.55892498,-2.44371487 C12.4828,2.60139686 18.069188,14.5569769 11.0514885,14.5569769 C4.03378898,14.5569769 7.15569629,13.7050011 2.48894722,11.7376457 Z"
                                  id="路径-97" fill-opacity="0.1" fill="#D8D8D8" fill-rule="nonzero"
                                  mask="url(#mask-2)"></path>
                            <path d="M3.53951219,10.7481813 C-0.0827248487,9.21759876 -3.3978005,7.43684699 -1.69345376,3.02025294 C0.0108929849,-1.39634111 5.20527412,-4.20981868 8.25090719,-0.284773055 C11.2965403,3.64027257 15.6325826,12.9415923 10.185585,12.9415923 C4.73858738,12.9415923 7.16174923,12.2787638 3.53951219,10.7481813 Z"
                                  id="路径-97" fill-opacity="0.1" fill="#F0F0F0" fill-rule="nonzero"
                                  mask="url(#mask-2)"></path>
                            <path d="M3.92358976,9.60223679 C1.08473675,8.39923396 -1.51338491,6.99960382 -0.177638565,3.52826195 C1.15810778,0.0569200915 5.22909606,-2.1544089 7.61604769,0.930587149 C10.0029993,4.0155832 13.4012824,11.3262076 9.13231121,11.3262076 C4.86334002,11.3262076 6.76244277,10.8052396 3.92358976,9.60223679 Z"
                                  id="路径-97" fill-opacity="0.2" fill="#F0F0F0" fill-rule="nonzero"
                                  mask="url(#mask-2)"></path>
                            <path d="M4.51899766,8.38172869 C2.44509587,7.49246061 0.347657778,6.63102023 1.32347679,4.06498008 C2.2992958,1.49893994 4.86454381,-0.111208108 6.6083126,2.16924252 C8.35208138,4.44969314 11.6692412,10.2344044 8.55057776,10.2344044 C5.43191435,10.2344044 6.59289945,9.27099678 4.51899766,8.38172869 Z"
                                  id="路径-97" fill-opacity="0.5" fill="#F0F0F0" fill-rule="nonzero"
                                  mask="url(#mask-2)"></path>
                            <path d="M4.86478544,7.41997005 C3.55583487,6.8444367 2.23202928,6.28691341 2.84792095,4.62617498 C3.46381263,2.96543655 5.08287814,1.92335046 6.18346407,3.39925566 C7.28405001,4.87516086 9.37768733,8.61901978 7.40933171,8.61901978 C5.44097609,8.61901978 6.17373601,7.99550341 4.86478544,7.41997005 Z"
                                  id="路径-97" fill="#F0F0F0" fill-rule="nonzero" mask="url(#mask-2)"></path>
                        </g>
                    </g>
                </g>
            </g>
        </g>
    </g>
</svg>