<?xml version="1.0" encoding="UTF-8"?>
<svg width="16px" height="16px" viewBox="0 0 16 16" version="1.1" xmlns="http://www.w3.org/2000/svg">
    <!-- Generator: Sketch 52.3 (67297) - http://www.bohemiancoding.com/sketch -->
    <title>16-Image_Layer3DManager_VectorModelCache</title>
    <desc>Created with Sketch.</desc>
    <g id="Page-1" stroke="none" stroke-width="1" fill="none" fill-rule="evenodd">
        <g id="画板" transform="translate(-957.000000, -1868.000000)" fill="#F0F0F0" fill-rule="nonzero">
            <g id="controlsImage" transform="translate(33.000000, 1852.000000)">
                <g id="16-Image_Layer3DManager_VectorModelCache" transform="translate(924.000000, 16.000000)">
                    <g id="11" transform="translate(0.902832, 1.000000)">
                        <path d="M12,4 L14,4 L14,14 L4,14 L4,12 L2,12 L2,10 L0,10 L0,-1.50990331e-14 L10,-1.50990331e-14 L10,2 L12,2 L12,4 Z M11,4 L11,3 L3,3 L3,11 L4,11 L4,4 L11,4 Z M2,9 L2,2 L9,2 L9,1 L1,1 L1,9 L2,9 Z M5,5 L5,13 L13,13 L13,5 L5,5 Z"
                              id="合并形状"></path>
                        <path d="M10.097168,11 L8.09716797,11 L8.09716797,13 L7.09716797,13 L7.09716797,11 L5.09716797,11 L5.09716797,10 L7.09716797,10 L7.09716797,9 L5.09716797,9 L5.09716797,13 L10.097168,13 L10.097168,11 Z M10.097168,10 L10.097168,9 L8.09716797,9 L8.09716797,10 L10.097168,10 Z M10.097168,8 L10.097168,7 L8.09716797,7 L8.09716797,8 L10.097168,8 Z M11.097168,8 L13.097168,8 L13.097168,9 L11.097168,9 L11.097168,10 L13.097168,10 L13.097168,11 L11.097168,11 L11.097168,14 L4.09716797,14 L4.09716797,8 L7.09716797,8 L7.09716797,6 L11.097168,6 L11.097168,8 Z"
                              id="合并形状"></path>
                    </g>
                </g>
            </g>
        </g>
    </g>
</svg>