<?xml version="1.0" encoding="UTF-8"?>
<svg width="16px" height="16px" viewBox="0 0 16 16" version="1.1" xmlns="http://www.w3.org/2000/svg">
    <!-- Generator: Sketch 52.3 (67297) - http://www.bohemiancoding.com/sketch -->
    <title>16-可见</title>
    <desc>Created with Sketch.</desc>
    <g id="Page-1" stroke="none" stroke-width="1" fill="none" fill-rule="evenodd">
        <g id="画板" transform="translate(-58.000000, -1737.000000)" fill="#F0F0F0">
            <g id="16" transform="translate(14.000000, 1713.000000)">
                <g id="controlsImage" transform="translate(0.000000, 24.000000)">
                    <g id="16-可见" transform="translate(44.000000, 0.000000)">
                        <path d="M8,12 C4.13400675,12 1,9.39892578 1,8 C1,6.60107422 4.13400675,4 8,4 C11.8659932,4 15,6.68359375 15,8 C15,9.31640625 11.8659932,12 8,12 Z M8,11 C10.209139,11 12,9.65685425 12,8 C12,6.34314575 10.209139,5 8,5 C5.790861,5 4,6.34314575 4,8 C4,9.65685425 5.790861,11 8,11 Z M7.10285499,6.21202007 C7.40946827,7.24585873 8.36666457,8 9.5,8 C9.67101742,8 9.83802415,7.98282817 9.99939001,7.95011468 C9.99979588,7.96669387 10,7.9833231 10,8 C10,9.1045695 9.1045695,10 8,10 C6.8954305,10 6,9.1045695 6,8 C6,7.21801456 6.44878995,6.54084963 7.10285499,6.21202007 Z"
                              id="可见"></path>
                    </g>
                </g>
            </g>
        </g>
    </g>
</svg>