<?xml version="1.0" encoding="UTF-8"?>
<svg width="16px" height="16px" viewBox="0 0 16 16" version="1.1" xmlns="http://www.w3.org/2000/svg">
    <!-- Generator: Sketch 54 (76480) - https://sketchapp.com -->
    <title>栅格缓存_dark</title>
    <desc>Created with Sketch.</desc>
    <g id="图标需求" stroke="none" stroke-width="1" fill="none" fill-rule="evenodd">
        <g id="16" transform="translate(-316.000000, -57.000000)" fill="#F0F0F0" fill-rule="nonzero">
            <g id="栅格缓存_dark" transform="translate(316.000000, 57.000000)">
                <g id="Image_DatasetGridCollection_Normal" transform="translate(1.000000, 1.000000)">
                    <path d="M14,9 L15,9 L15,14 L4,14 L4,12 L2,12 L2,10 L0,10 L0,2.7533531e-14 L10,2.7533531e-14 L10,2 L12,2 L12,4 L14,4 L14,9 Z M13,9 L13,5 L5,5 L5,13 L10,13 L10,11 L8,11 L8,13 L7,13 L7,11 L5,11 L5,10 L7,10 L7,8 L5,8 L5,7 L7,7 L7,5 L8,5 L8,7 L10,7 L10,5 L11,5 L11,7 L13,7 L13,8 L11,8 L11,9 L13,9 Z M10,10 L10,8 L8,8 L8,10 L10,10 Z M11,4 L11,3 L3,3 L3,11 L4,11 L4,4 L11,4 Z M2,9 L2,2 L9,2 L9,1 L1,1 L1,9 L2,9 Z M11,10 L11,13 L14,13 L14,10 L11,10 Z M12,11 L13,11 L13,12 L12,12 L12,11 Z"
                          id="形状"></path>
                </g>
            </g>
        </g>
    </g>
</svg>