<?xml version="1.0" encoding="UTF-8"?>
<svg width="16px" height="16px" viewBox="0 0 16 16" version="1.1" xmlns="http://www.w3.org/2000/svg">
    <!-- Generator: Sketch 52.3 (67297) - http://www.bohemiancoding.com/sketch -->
    <title>16-配准</title>
    <desc>Created with Sketch.</desc>
    <g id="Page-1" stroke="none" stroke-width="1" fill="none" fill-rule="evenodd">
        <g id="画板" transform="translate(-14.000000, -1737.000000)">
            <g id="16" transform="translate(14.000000, 1713.000000)">
                <g id="controlsImage" transform="translate(0.000000, 24.000000)">
                    <g id="16-配准">
                        <g id="矩形-6" transform="translate(1.000000, 1.000000)">
                            <rect id="矩形" stroke="#F0F0F0" fill-rule="nonzero" x="4.5" y="4.5" width="4"
                                  height="4"></rect>
                            <path d="M9,6 L13,6 L13,7 L9,7 L9,6 Z M7,9 L7,13 L6,13 L6,9 L7,9 Z M4,7 L0,7 L0,6 L4,6 L4,7 Z M6,4 L6,0 L7,0 L7,4 L6,4 Z M6,6 L7,6 L7,7 L6,7 L6,6 Z"
                                  id="配准" fill="#F0F0F0"></path>
                        </g>
                    </g>
                </g>
            </g>
        </g>
    </g>
</svg>