<?xml version="1.0" encoding="UTF-8"?>
<svg xmlns:xlink="http://www.w3.org/1999/xlink" width="16px" height="16px" viewBox="0 0 16 16" version="1.1"
     xmlns="http://www.w3.org/2000/svg">
    <!-- Generator: Sketch 52.3 (67297) - http://www.bohemiancoding.com/sketch -->
    <title>16-Image_Layer_GridAggregation</title>
    <desc>Created with Sketch.</desc>
    <defs>
        <rect id="path-1" x="0" y="0" width="14" height="14" rx="1"></rect>
    </defs>
    <g id="Page-1" stroke="none" stroke-width="1" fill="none" fill-rule="evenodd">
        <g id="画板" transform="translate(-869.000000, -1868.000000)">
            <g id="controlsImage" transform="translate(33.000000, 1852.000000)">
                <g id="16-Image_Layer_GridAggregation" transform="translate(836.000000, 16.000000)">
                    <g id="聚合图" transform="translate(0.902832, 1.000000)">
                        <rect id="矩形" stroke="#F0F0F0" x="0.5" y="0.5" width="13" height="13" rx="1"></rect>
                        <g id="分组-120">
                            <mask id="mask-2" fill="white">
                                <use xlink:href="#path-1"></use>
                            </mask>
                            <g id="Mask"></g>
                            <g mask="url(#mask-2)" fill="#F0F0F0" id="多边形">
                                <g transform="translate(4.307692, 2.153846)">
                                    <polygon opacity="0.8"
                                             transform="translate(1.884615, 6.192308) rotate(-270.000000) translate(-1.884615, -6.192308) "
                                             points="1.88461538 4.30769231 3.76923077 5.25 3.76923077 7.13461538 1.88461538 8.07692308 -4.44260867e-12 7.13461538 -4.4488857e-12 5.25"></polygon>
                                    <polygon
                                            transform="translate(1.884615, 1.884615) rotate(-270.000000) translate(-1.884615, -1.884615) "
                                            points="1.88461538 -2.68693956e-11 3.76923077 0.942307692 3.76923077 2.82692308 1.88461538 3.76923077 -5.56766088e-12 2.82692308 -5.56887869e-12 0.942307692"></polygon>
                                    <polygon
                                            transform="translate(6.192308, 4.576923) rotate(-270.000000) translate(-6.192308, -4.576923) "
                                            points="6.19230769 2.69230769 8.07692308 3.63461538 8.07692308 5.51923077 6.19230769 6.46153846 4.30769231 5.51923077 4.30769231 3.63461538"></polygon>
                                    <polygon opacity="0.4"
                                             transform="translate(1.884615, 10.500000) rotate(-270.000000) translate(-1.884615, -10.500000) "
                                             points="1.88461538 8.61538462 3.76923077 9.55769231 3.76923077 11.4423077 1.88461538 12.3846154 -3.7454484e-12 11.4423077 -3.7454484e-12 9.55769231"></polygon>
                                    <polygon opacity="0.5"
                                             transform="translate(6.192308, 8.884615) rotate(-270.000000) translate(-6.192308, -8.884615) "
                                             points="6.19230769 7 8.07692308 7.94230769 8.07692308 9.82692308 6.19230769 10.7692308 4.30769231 9.82692308 4.30769231 7.94230769"></polygon>
                                </g>
                            </g>
                        </g>
                        <path d="M4,2.64866167 L3,4.55237219 L1,4.55237219 L-1.6502355e-12,2.64866167 L1,0.744951152 L3,0.744951152 L4,2.64866167 Z M4,7 L3,8.90371052 L1,8.90371052 L-4.2681414e-12,7 L1,5.09628948 L3,5.09628948 L4,7 Z M4,11.3513383 L3,13.2550488 L1,13.2550488 L-3.80406817e-12,11.3513383 L1,9.44762781 L3,9.44762781 L4,11.3513383 Z"
                              id="合并形状" fill="#F0F0F0" opacity="0.5"></path>
                    </g>
                </g>
            </g>
        </g>
    </g>
</svg>