<?xml version="1.0" encoding="UTF-8"?>
<svg width="16px" height="16px" viewBox="0 0 16 16" version="1.1" xmlns="http://www.w3.org/2000/svg">
    <!-- Generator: Sketch 52.3 (67297) - http://www.bohemiancoding.com/sketch -->
    <title>16-Image_Layer3DManager_GeoPlacemark</title>
    <desc>Created with Sketch.</desc>
    <g id="Page-1" stroke="none" stroke-width="1" fill="none" fill-rule="evenodd">
        <g id="画板" transform="translate(-737.000000, -1868.000000)" fill="#F0F0F0" fill-rule="nonzero">
            <g id="controlsImage" transform="translate(33.000000, 1852.000000)">
                <g id="16-Image_Layer3DManager_GeoPlacemark" transform="translate(704.000000, 16.000000)">
                    <g id="分组-278" transform="translate(3.000000, 1.000000)">
                        <path d="M5.14561576,12.3700658 C5.65443205,11.7125635 6.24633017,10.865587 6.79267437,10.001235 C8.14337824,7.86433373 9,5.96968517 9,5 C9,2.790861 7.209139,1 5,1 C2.790861,1 1,2.790861 1,5 C1,5.96968517 1.85662176,7.86433373 3.20732563,10.001235 C3.75366983,10.865587 4.34556795,11.7125635 4.85438424,12.3700658 C4.90446818,12.4347852 4.95309427,12.4967983 5,12.5558079 C5.04690573,12.4967983 5.09553182,12.4347852 5.14561576,12.3700658 Z M5,14 C4.63208008,14 0,7.76142375 0,5 C0,2.23857625 2.23857625,0 5,0 C7.76142375,0 10,2.23857625 10,5 C10,7.76142375 5.36791992,14 5,14 Z"
                              id="椭圆形"></path>
                        <path d="M5,7.5 C3.61928813,7.5 2.5,6.38071187 2.5,5 C2.5,3.61928813 3.61928813,2.5 5,2.5 C6.38071187,2.5 7.5,3.61928813 7.5,5 C7.5,6.38071187 6.38071187,7.5 5,7.5 Z M5,6.5 C5.82842712,6.5 6.5,5.82842712 6.5,5 C6.5,4.17157288 5.82842712,3.5 5,3.5 C4.17157288,3.5 3.5,4.17157288 3.5,5 C3.5,5.82842712 4.17157288,6.5 5,6.5 Z"
                              id="椭圆形"></path>
                    </g>
                </g>
            </g>
        </g>
    </g>
</svg>