<?xml version="1.0" encoding="UTF-8"?>
<svg width="16px" height="16px" viewBox="0 0 16 16" version="1.1" xmlns="http://www.w3.org/2000/svg">
    <!-- Generator: Sketch 52.3 (67297) - http://www.bohemiancoding.com/sketch -->
    <title>16-Image_Layer3DManager_Feature3Ds</title>
    <desc>Created with Sketch.</desc>
    <g id="Page-1" stroke="none" stroke-width="1" fill="none" fill-rule="evenodd">
        <g id="画板" transform="translate(-693.000000, -1868.000000)">
            <g id="controlsImage" transform="translate(33.000000, 1852.000000)">
                <g id="16-Image_Layer3DManager_Feature3Ds" transform="translate(660.000000, 16.000000)">
                    <g id="分组-277" transform="translate(0.000000, 1.000000)">
                        <g id="分组-275"
                           transform="translate(6.399902, 7.639160) rotate(-270.000000) translate(-6.399902, -7.639160) translate(-1.100098, 2.139160)"
                           fill="#F0F0F0" fill-rule="nonzero">
                            <path d="M11,6 L12,6 L12,11 L0,11 L0,0 L3,0 L3,1 L1,1 L1,10 L11,10 L11,6 Z"
                                  id="合并形状"></path>
                            <polygon id="矩形" points="2.12451172 7 14.1245117 7 12 11 -1.20765342e-11 11"></polygon>
                        </g>
                        <g id="分组-276" transform="translate(5.000000, 3.000000)">
                            <path d="M6.5,0.5 L1.30566406,0.5 L1.30566406,10.5 L9.30566406,10.5 L9.30566406,3.5 L6.5,3.5 L6.5,0.5 Z"
                                  id="合并形状" stroke="#F0F0F0" fill-rule="nonzero"></path>
                            <path d="M6.98999023,0.725036621 L9.08398437,2.9666748" id="直线-208" stroke="#F0F0F0"
                                  stroke-linecap="square" fill-rule="nonzero"></path>
                            <polygon id="k" fill="#F0F0F0"
                                     points="3.53125 9 3.53125 3.2734375 4.234375 3.2734375 4.234375 6.5390625 5.8984375 4.8515625 6.80859375 4.8515625 5.22265625 6.390625 6.96875 9 6.1015625 9 4.73046875 6.87890625 4.234375 7.35546875 4.234375 9"></polygon>
                        </g>
                    </g>
                </g>
            </g>
        </g>
    </g>
</svg>