<?xml version="1.0" encoding="UTF-8"?>
<svg width="16px" height="16px" viewBox="0 0 16 16" version="1.1" xmlns="http://www.w3.org/2000/svg">
    <!-- Generator: Sketch 52.3 (67297) - http://www.bohemiancoding.com/sketch -->
    <title>16-C</title>
    <desc>Created with Sketch.</desc>
    <g id="Page-1" stroke="none" stroke-width="1" fill="none" fill-rule="evenodd">
        <g id="画板" transform="translate(-254.000000, -2111.000000)">
            <g id="coreresources" transform="translate(99.000000, 2111.000000)">
                <g id="Band" transform="translate(44.000000, 0.000000)">
                    <g id="16-C" transform="translate(111.000000, 0.000000)">
                        <g id="c" transform="translate(1.000000, 1.000000)">
                            <circle id="椭圆形" fill="#C8C8C8" fill-rule="nonzero" cx="7" cy="7" r="7"></circle>
                            <path d="M9.45703125,7.72460938 L10.59375,8.01171875 C10.3554676,8.94531717 9.92676091,9.65722411 9.30761719,10.1474609 C8.68847347,10.6376978 7.9316451,10.8828125 7.03710938,10.8828125 C6.1113235,10.8828125 5.35840134,10.6943378 4.77832031,10.3173828 C4.19823929,9.9404278 3.75683745,9.39453482 3.45410156,8.6796875 C3.15136567,7.96484018 3,7.19726973 3,6.37695312 C3,5.4824174 3.17089673,4.70215177 3.51269531,4.03613281 C3.8544939,3.37011386 4.34081716,2.86425954 4.97167969,2.51855469 C5.60254222,2.17284983 6.29687121,2 7.0546875,2 C7.9140668,2 8.63671582,2.21874781 9.22265625,2.65625 C9.80859668,3.09375219 10.2167957,3.70898041 10.4472656,4.50195312 L9.328125,4.765625 C9.12890525,4.14062188 8.83984564,3.6855483 8.4609375,3.40039062 C8.08202936,3.11523295 7.60547162,2.97265625 7.03125,2.97265625 C6.37109045,2.97265625 5.81933815,3.13085779 5.37597656,3.44726562 C4.93261497,3.76367346 4.62109465,4.1884739 4.44140625,4.72167969 C4.26171785,5.25488548 4.171875,5.80468467 4.171875,6.37109375 C4.171875,7.10156615 4.27831925,7.73925509 4.49121094,8.28417969 C4.70410263,8.82910429 5.035154,9.23632678 5.484375,9.50585938 C5.933596,9.77539197 6.41991926,9.91015625 6.94335938,9.91015625 C7.58008131,9.91015625 8.11913842,9.72656434 8.56054688,9.359375 C9.00195533,8.99218566 9.30078047,8.44726924 9.45703125,7.72460938 Z"
                                  fill="#000000"></path>
                        </g>
                    </g>
                </g>
            </g>
        </g>
    </g>
</svg>