<?xml version="1.0" encoding="UTF-8"?>
<svg width="16px" height="16px" viewBox="0 0 16 16" version="1.1" xmlns="http://www.w3.org/2000/svg">
    <!-- Generator: Sketch 52.3 (67297) - http://www.bohemiancoding.com/sketch -->
    <title>16-Q</title>
    <desc>Created with Sketch.</desc>
    <g id="Page-1" stroke="none" stroke-width="1" fill="none" fill-rule="evenodd">
        <g id="画板" transform="translate(-232.000000, -2111.000000)">
            <g id="coreresources" transform="translate(99.000000, 2111.000000)">
                <g id="Band" transform="translate(44.000000, 0.000000)">
                    <g id="16-Q" transform="translate(89.000000, 0.000000)">
                        <g id="q" transform="translate(1.000000, 1.000000)">
                            <circle id="椭圆形" fill="#C8C8C8" fill-rule="nonzero" cx="7" cy="7" r="7"></circle>
                            <path d="M9.91992188,9.82226562 C10.4472683,10.1855487 10.9335915,10.451171 11.3789062,10.6191406 L11.0449219,11.4101562 C10.4277313,11.1874989 9.81250307,10.8359399 9.19921875,10.3554688 C8.56249682,10.7109393 7.85937885,10.8886719 7.08984375,10.8886719 C6.31249611,10.8886719 5.60742504,10.7011737 4.97460938,10.3261719 C4.34179371,9.95117 3.8544939,9.42383152 3.51269531,8.74414062 C3.17089673,8.06444973 3,7.29883238 3,6.44726562 C3,5.59960514 3.17187328,4.82812848 3.515625,4.1328125 C3.85937672,3.43749652 4.34862964,2.90820494 4.98339844,2.54492188 C5.61816724,2.18163881 6.32812107,2 7.11328125,2 C7.90625396,2 8.62109057,2.18847468 9.2578125,2.56542969 C9.89453443,2.9423847 10.3798811,3.46972317 10.7138672,4.14746094 C11.0478532,4.8251987 11.2148438,5.58983949 11.2148438,6.44140625 C11.2148438,7.14844104 11.1074229,7.78417687 10.8925781,8.34863281 C10.6777333,8.91308876 10.3535178,9.40429479 9.91992188,9.82226562 Z M7.41796875,8.36914062 C8.07422203,8.55273529 8.61523225,8.82617006 9.04101562,9.18945312 C9.70898771,8.58007508 10.0429688,7.66406861 10.0429688,6.44140625 C10.0429688,5.74609027 9.92480587,5.13867447 9.68847656,4.61914062 C9.45214726,4.09960678 9.10644759,3.6962905 8.65136719,3.40917969 C8.19628679,3.12206888 7.68554971,2.97851562 7.11914062,2.97851562 C6.27148014,2.97851562 5.56836217,3.26855179 5.00976562,3.84863281 C4.45116908,4.42871384 4.171875,5.29491611 4.171875,6.44726562 C4.171875,7.56445871 4.44823942,8.42187201 5.00097656,9.01953125 C5.5537137,9.61719049 6.25976133,9.91601562 7.11914062,9.91601562 C7.52539266,9.91601562 7.90820133,9.83984451 8.26757812,9.6875 C7.9121076,9.4570301 7.53711135,9.29296924 7.14257812,9.1953125 L7.41796875,8.36914062 Z"
                                  fill="#000000"></path>
                        </g>
                    </g>
                </g>
            </g>
        </g>
    </g>
</svg>