<?xml version="1.0" encoding="UTF-8"?>
<svg width="16px" height="16px" viewBox="0 0 16 16" version="1.1" xmlns="http://www.w3.org/2000/svg">
    <!-- Generator: Sketch 52.3 (67297) - http://www.bohemiancoding.com/sketch -->
    <title>16-RGB-R</title>
    <desc>Created with Sketch.</desc>
    <g id="Page-1" stroke="none" stroke-width="1" fill="none" fill-rule="evenodd">
        <g id="画板" transform="translate(-320.000000, -2111.000000)">
            <g id="coreresources" transform="translate(99.000000, 2111.000000)">
                <g id="Band" transform="translate(44.000000, 0.000000)">
                    <g id="16-RGB-R" transform="translate(177.000000, 0.000000)">
                        <g id="r" transform="translate(1.000000, 1.000000)">
                            <circle id="椭圆形" fill="#FF0000" fill-rule="nonzero" cx="7" cy="7" r="7"></circle>
                            <path d="M3.94335938,11 L3.94335938,2.41015625 L7.75195312,2.41015625 C8.51758195,2.41015625 9.09960738,2.48730392 9.49804688,2.64160156 C9.89648637,2.79589921 10.2148426,3.06835742 10.453125,3.45898438 C10.6914074,3.84961133 10.8105469,4.28124764 10.8105469,4.75390625 C10.8105469,5.3632843 10.6132832,5.87695104 10.21875,6.29492188 C9.82421678,6.71289271 9.21484787,6.97851506 8.390625,7.09179688 C8.69140775,7.23632885 8.91992109,7.37890555 9.07617188,7.51953125 C9.40820479,7.82422027 9.72265477,8.20507584 10.0195312,8.66210938 L11.5136719,11 L10.0839844,11 L8.94726562,9.21289062 C8.61523271,8.69726305 8.34179795,8.30273574 8.12695312,8.02929688 C7.9121083,7.75585801 7.71972741,7.56445367 7.54980469,7.45507812 C7.37988196,7.34570258 7.20703213,7.26953146 7.03125,7.2265625 C6.90234311,7.19921861 6.69140771,7.18554688 6.3984375,7.18554688 L5.08007812,7.18554688 L5.08007812,11 L3.94335938,11 Z M5.08007812,6.20117188 L7.5234375,6.20117188 C8.04297135,6.20117188 8.44921729,6.14746147 8.7421875,6.04003906 C9.03515771,5.93261665 9.25781174,5.76074337 9.41015625,5.52441406 C9.56250076,5.28808476 9.63867188,5.03125139 9.63867188,4.75390625 C9.63867188,4.34765422 9.49121241,4.01367318 9.19628906,3.75195312 C8.90136571,3.49023307 8.43555006,3.359375 7.79882812,3.359375 L5.08007812,3.359375 L5.08007812,6.20117188 Z"
                                  fill="#FFFFFF"></path>
                        </g>
                    </g>
                </g>
            </g>
        </g>
    </g>
</svg>