<?xml version="1.0" encoding="UTF-8"?>
<svg width="16px" height="16px" viewBox="0 0 16 16" version="1.1" xmlns="http://www.w3.org/2000/svg">
    <!-- Generator: Sketch 52.3 (67297) - http://www.bohemiancoding.com/sketch -->
    <title>16-RGBA-G</title>
    <desc>Created with Sketch.</desc>
    <g id="Page-1" stroke="none" stroke-width="1" fill="none" fill-rule="evenodd">
        <g id="画板" transform="translate(-364.000000, -2111.000000)">
            <g id="coreresources" transform="translate(99.000000, 2111.000000)">
                <g id="Band" transform="translate(44.000000, 0.000000)">
                    <g id="16-RGBA-G" transform="translate(221.000000, 0.000000)">
                        <g id="g" transform="translate(1.000000, 1.000000)">
                            <circle id="椭圆形" fill="#00FF00" fill-rule="nonzero" cx="7" cy="7" r="7"></circle>
                            <path d="M7.30664062,7.3671875 L7.30664062,6.359375 L10.9453125,6.35351562 L10.9453125,9.54101562 C10.386716,9.98633035 9.81054984,10.3212879 9.21679688,10.5458984 C8.62304391,10.7705089 8.013675,10.8828125 7.38867188,10.8828125 C6.54491766,10.8828125 5.77832376,10.7021502 5.08886719,10.3408203 C4.39941062,9.97949038 3.87890801,9.45703467 3.52734375,8.7734375 C3.17577949,8.08984033 3,7.32617609 3,6.48242188 C3,5.6464802 3.17480294,4.86621456 3.52441406,4.14160156 C3.87402519,3.41698856 4.37694984,2.87890801 5.03320312,2.52734375 C5.68945641,2.17577949 6.44530822,2 7.30078125,2 C7.92187811,2 8.48339593,2.10058493 8.98535156,2.30175781 C9.4873072,2.50293069 9.88085795,2.78320133 10.1660156,3.14257812 C10.4511733,3.50195492 10.667968,3.97070023 10.8164062,4.54882812 L9.79101562,4.83007812 C9.66210873,4.39257594 9.50195408,4.04882938 9.31054688,3.79882812 C9.11913967,3.54882687 8.8457049,3.34863356 8.49023438,3.19824219 C8.13476385,3.04785081 7.74023654,2.97265625 7.30664062,2.97265625 C6.78710678,2.97265625 6.33789252,3.05175702 5.95898438,3.20996094 C5.58007623,3.36816485 5.27441522,3.57617059 5.04199219,3.83398438 C4.80956915,4.09179816 4.62890689,4.37499846 4.5,4.68359375 C4.28124891,5.21484641 4.171875,5.79101252 4.171875,6.41210938 C4.171875,7.1777382 4.30370962,7.8183568 4.56738281,8.33398438 C4.83105601,8.84961195 5.21484123,9.23242062 5.71875,9.48242188 C6.22265877,9.73242313 6.75780967,9.85742188 7.32421875,9.85742188 C7.81640871,9.85742188 8.29687266,9.76269626 8.765625,9.57324219 C9.23437734,9.38378812 9.58984254,9.1816417 9.83203125,8.96679688 L9.83203125,7.3671875 L7.30664062,7.3671875 Z"
                                  fill="#FFFFFF"></path>
                        </g>
                    </g>
                </g>
            </g>
        </g>
    </g>
</svg>