<?xml version="1.0" encoding="UTF-8"?>
<svg width="16px" height="16px" viewBox="0 0 16 16" version="1.1" xmlns="http://www.w3.org/2000/svg">
    <!-- Generator: Sketch 52.3 (67297) - http://www.bohemiancoding.com/sketch -->
    <title>16-RGBA-B</title>
    <desc>Created with Sketch.</desc>
    <g id="Page-1" stroke="none" stroke-width="1" fill="none" fill-rule="evenodd">
        <g id="画板" transform="translate(-428.000000, -2111.000000)">
            <g id="coreresources" transform="translate(99.000000, 2111.000000)">
                <g id="Band" transform="translate(44.000000, 0.000000)">
                    <g id="16-RGBA-B" transform="translate(285.000000, 0.000000)">
                        <g id="b" transform="translate(1.000000, 1.000000)">
                            <circle id="椭圆形" fill="#0000FF" fill-rule="nonzero" cx="7" cy="7" r="7"></circle>
                            <path d="M3.87890625,11 L3.87890625,2.41015625 L7.1015625,2.41015625 C7.75781578,2.41015625 8.28417771,2.49706944 8.68066406,2.67089844 C9.07715042,2.84472743 9.38769419,3.11230288 9.61230469,3.47363281 C9.83691519,3.83496274 9.94921875,4.21288865 9.94921875,4.60742188 C9.94921875,4.97461121 9.84961037,5.32031088 9.65039062,5.64453125 C9.45117088,5.96875162 9.15039264,6.23046775 8.74804688,6.4296875 C9.26758072,6.58203201 9.66699079,6.84179504 9.94628906,7.20898438 C10.2255873,7.57617371 10.3652344,8.00976312 10.3652344,8.50976562 C10.3652344,8.91211139 10.2802743,9.28613108 10.1103516,9.63183594 C9.94042884,9.97754079 9.73047,10.2441397 9.48046875,10.4316406 C9.2304675,10.6191416 8.91699407,10.7607417 8.54003906,10.8564453 C8.16308405,10.9521489 7.70117461,11 7.15429688,11 L3.87890625,11 Z M5.015625,6.01953125 L6.87304688,6.01953125 C7.37695564,6.01953125 7.73828016,5.98632846 7.95703125,5.91992188 C8.2460952,5.83398395 8.46386646,5.69140725 8.61035156,5.4921875 C8.75683667,5.29296775 8.83007812,5.04297025 8.83007812,4.7421875 C8.83007812,4.45702982 8.76171943,4.20605577 8.625,3.98925781 C8.48828057,3.77245985 8.29297002,3.62402384 8.0390625,3.54394531 C7.78515498,3.46386679 7.34961246,3.42382812 6.73242188,3.42382812 L5.015625,3.42382812 L5.015625,6.01953125 Z M5.015625,9.98632812 L7.15429688,9.98632812 C7.52148621,9.98632812 7.77929613,9.97265639 7.92773438,9.9453125 C8.18945443,9.89843727 8.40820225,9.82031305 8.58398438,9.7109375 C8.7597665,9.60156195 8.90429631,9.44238386 9.01757812,9.23339844 C9.13085994,9.02441302 9.1875,8.78320449 9.1875,8.50976562 C9.1875,8.18945152 9.10546957,7.91113399 8.94140625,7.67480469 C8.77734293,7.43847538 8.54980614,7.27246142 8.25878906,7.17675781 C7.96777198,7.08105421 7.54883086,7.03320312 7.00195312,7.03320312 L5.015625,7.03320312 L5.015625,9.98632812 Z"
                                  fill="#FFFFFF"></path>
                        </g>
                    </g>
                </g>
            </g>
        </g>
    </g>
</svg>