<?xml version="1.0" encoding="UTF-8"?>
<svg width="16px" height="16px" viewBox="0 0 16 16" version="1.1" xmlns="http://www.w3.org/2000/svg">
    <!-- Generator: Sketch 52.3 (67297) - http://www.bohemiancoding.com/sketch -->
    <title>16-U</title>
    <desc>Created with Sketch.</desc>
    <g id="Page-1" stroke="none" stroke-width="1" fill="none" fill-rule="evenodd">
        <g id="画板" transform="translate(-209.000000, -2111.000000)">
            <g id="coreresources" transform="translate(99.000000, 2111.000000)">
                <g id="Band" transform="translate(44.000000, 0.000000)">
                    <g id="16-U" transform="translate(66.000000, 0.000000)">
                        <g id="u" transform="translate(1.000000, 1.000000)">
                            <circle id="椭圆形" fill="#C8C8C8" fill-rule="nonzero" cx="7" cy="7" r="7"></circle>
                            <path d="M9.61914062,3 L10.7558594,3 L10.7558594,7.96289062 C10.7558594,8.82617619 10.6582041,9.51171621 10.4628906,10.0195312 C10.2675771,10.5273463 9.91504161,10.9404281 9.40527344,11.2587891 C8.89550526,11.57715 8.22656664,11.7363281 7.3984375,11.7363281 C6.59374598,11.7363281 5.93554943,11.5976576 5.42382812,11.3203125 C4.91210682,11.0429674 4.54687609,10.6416042 4.328125,10.1162109 C4.10937391,9.59081769 4,8.87305143 4,7.96289062 L4,3 L5.13671875,3 L5.13671875,7.95703125 C5.13671875,8.70312873 5.20605399,9.25292792 5.34472656,9.60644531 C5.48339913,9.95996271 5.721678,10.2324209 6.05957031,10.4238281 C6.39746263,10.6152353 6.81054443,10.7109375 7.29882812,10.7109375 C8.1347698,10.7109375 8.73046697,10.5214863 9.0859375,10.1425781 C9.44140803,9.76366998 9.61914062,9.03516164 9.61914062,7.95703125 L9.61914062,3 Z"
                                  fill="#000000"></path>
                        </g>
                    </g>
                </g>
            </g>
        </g>
    </g>
</svg>