<?xml version="1.0" encoding="UTF-8"?>
<svg width="16px" height="16px" viewBox="0 0 16 16" version="1.1" xmlns="http://www.w3.org/2000/svg">
    <!-- Generator: Sketch 54 (76480) - https://sketchapp.com -->
    <title>块存储检查_dark</title>
    <desc>Created with Sketch.</desc>
    <g id="图标需求" stroke="none" stroke-width="1" fill="none" fill-rule="evenodd">
        <g id="16" transform="translate(-446.000000, -57.000000)" fill="#F0F0F0" fill-rule="nonzero">
            <g id="块存储检查_dark" transform="translate(446.000000, 57.000000)">
                <path d="M6,4.16891098 L6,1 L10,1 L10,3.72890114 C12.0285535,4.36603296 13.5,6.26117911 13.5,8.5 C13.5,9.83021366 12.9805442,11.0391019 12.1334172,11.9348802 C12.1542261,11.9500479 12.1741286,11.9670218 12.1929089,11.9858021 L14.7689587,14.5618519 C14.9642208,14.757114 14.9642208,15.0736965 14.7689587,15.2689587 C14.5736965,15.4642208 14.257114,15.4642208 14.0618519,15.2689587 L11.4858021,12.6929089 C11.4500335,12.6571403 11.4208172,12.6173008 11.3981529,12.5748818 C10.580612,13.1573834 9.58031717,13.5 8.5,13.5 C6.26117911,13.5 4.36603296,12.0285535 3.72890114,10 L1,10 L1,6 L4.16891098,6 C4.38005868,5.63498859 4.63602446,5.29914702 4.9292836,5 L1,5 L1,1 L5,1 L5,4.9292836 C5.29914702,4.63602446 5.63498859,4.38005868 6,4.16891098 L6,4.16891098 Z M7,3.72890114 C7.47352061,3.58017691 7.97739714,3.5 8.5,3.5 C8.6687497,3.5 8.83554688,3.50835972 9,3.52468762 L9,2 L7,2 L7,3.72890114 L7,3.72890114 Z M3.72890114,7 L2,7 L2,9 L3.52468762,9 C3.50835972,8.83554688 3.5,8.6687497 3.5,8.5 C3.5,7.97739714 3.58017691,7.47352061 3.72890114,7 L3.72890114,7 Z M2,2 L2,4 L4,4 L4,2 L2,2 Z M6,6 L11,6 L11,11 L6,11 L6,6 Z M7,7 L7,10 L10,10 L10,7 L7,7 Z M8.5,12.5 C10.709139,12.5 12.5,10.709139 12.5,8.5 C12.5,6.290861 10.709139,4.5 8.5,4.5 C6.290861,4.5 4.5,6.290861 4.5,8.5 C4.5,10.709139 6.290861,12.5 8.5,12.5 Z"
                      id="形状"></path>
            </g>
        </g>
    </g>
</svg>