<?xml version="1.0" encoding="UTF-8"?>
<svg width="16px" height="16px" viewBox="0 0 16 16" version="1.1" xmlns="http://www.w3.org/2000/svg">
    <!-- Generator: Sketch 54 (76480) - https://sketchapp.com -->
    <title>块存储检查</title>
    <desc>Created with Sketch.</desc>
    <g id="图标需求" stroke="none" stroke-width="1" fill="none" fill-rule="evenodd">
        <g id="16" transform="translate(-446.000000, -13.000000)">
            <g id="块存储检查" transform="translate(446.000000, 13.000000)">
                <g id="编组-9" transform="translate(1.000000, 1.000000)">
                    <path d="M9,3.25605856 C10.7477886,3.87381317 12,5.54067176 12,7.5 C12,9.98528137 9.98528137,12 7.5,12 C5.54067176,12 3.87381317,10.7477886 3.25605856,9 L0,9 L0,5 L3.75777452,5 C4.08639718,4.50906328 4.50906328,4.08639718 5,3.75777452 L5,0 L9,0 L9,3.25605856 Z M0,0 L4,0 L4,4 L0,4 L0,0 Z"
                          id="形状" fill="#FFFFFF"></path>
                    <path d="M9,3.25605856 C8.53083161,3.09023133 8.02595313,3 7.5,3 C6.57492668,3 5.71504902,3.27913583 5,3.75777452 L5,0 L9,0 L9,3.25605856 L9,3.25605856 Z M3.75777452,5 C3.27913583,5.71504902 3,6.57492668 3,7.5 C3,8.02595313 3.09023133,8.53083161 3.25605856,9 L0,9 L0,5 L3.75777452,5 L3.75777452,5 Z M0,0 L4,0 L4,4 L0,4 L0,0 Z M1,1 L1,3 L3,3 L3,1 L1,1 Z M6,1 L6,3 L8,3 L8,1 L6,1 Z M1,6 L1,8 L3,8 L3,6 L1,6 Z"
                          id="形状" fill="#ACB4C0" fill-rule="nonzero"></path>
                    <rect id="矩形" stroke="#27A2DF" x="5.5" y="5.5" width="4" height="4"></rect>
                    <path d="M10.3981529,11.5748818 C9.58061196,12.1573834 8.58031717,12.5 7.5,12.5 C4.73857625,12.5 2.5,10.2614237 2.5,7.5 C2.5,4.73857625 4.73857625,2.5 7.5,2.5 C10.2614237,2.5 12.5,4.73857625 12.5,7.5 C12.5,8.83021366 11.9805442,10.0391019 11.1334172,10.9348802 C11.1542261,10.9500479 11.1741286,10.9670218 11.1929089,10.9858021 L13.7689587,13.5618519 C13.9642208,13.757114 13.9642208,14.0736965 13.7689587,14.2689587 C13.5736965,14.4642208 13.257114,14.4642208 13.0618519,14.2689587 L10.4858021,11.6929089 C10.4500335,11.6571403 10.4208172,11.6173008 10.3981529,11.5748818 L10.3981529,11.5748818 Z M7.5,11.5 C9.709139,11.5 11.5,9.709139 11.5,7.5 C11.5,5.290861 9.709139,3.5 7.5,3.5 C5.290861,3.5 3.5,5.290861 3.5,7.5 C3.5,9.709139 5.290861,11.5 7.5,11.5 Z"
                          id="形状" fill="#5D6D7E" fill-rule="nonzero"></path>
                </g>
            </g>
        </g>
    </g>
</svg>