<?xml version="1.0" encoding="UTF-8"?>
<svg width="16px" height="16px" viewBox="0 0 16 16" version="1.1" xmlns="http://www.w3.org/2000/svg">
    <!-- Generator: Sketch 52.3 (67297) - http://www.bohemiancoding.com/sketch -->
    <title>16-Setting</title>
    <desc>Created with Sketch.</desc>
    <g id="Page-1" stroke="none" stroke-width="1" fill="none" fill-rule="evenodd">
        <g id="画板" transform="translate(-389.000000, -1746.000000)" fill="#F0F0F0" fill-rule="nonzero">
            <g id="16" transform="translate(15.000000, 1683.000000)">
                <g id="16-Setting" transform="translate(374.000000, 63.000000)">
                    <path d="M3.82839654,5.2426101 L2.69669914,4.1109127 C2.501437,3.91565056 2.501437,3.59906807 2.69669914,3.40380592 L3.40380592,2.69669914 C3.59906807,2.501437 3.91565056,2.501437 4.1109127,2.69669914 L5.2426101,3.82839654 C5.7674156,3.48080724 6.36162534,3.22960133 7,3.10001812 L7,1.5 C7,1.22385763 7.22385763,1 7.5,1 L8.5,1 C8.77614237,1 9,1.22385763 9,1.5 L9,3.10001812 C9.63837466,3.22960133 10.2325844,3.48080724 10.7573899,3.82839654 L11.8890873,2.69669914 C12.0843494,2.501437 12.4009319,2.501437 12.5961941,2.69669914 L13.3033009,3.40380592 C13.498563,3.59906807 13.498563,3.91565056 13.3033009,4.1109127 L12.1716035,5.2426101 C12.5191928,5.7674156 12.7703987,6.36162534 12.8999819,7 L14.5,7 C14.7761424,7 15,7.22385763 15,7.5 L15,8.5 C15,8.77614237 14.7761424,9 14.5,9 L12.8999819,9 C12.7703987,9.63837466 12.5191928,10.2325844 12.1716035,10.7573899 L13.3033009,11.8890873 C13.498563,12.0843494 13.498563,12.4009319 13.3033009,12.5961941 L12.5961941,13.3033009 C12.4009319,13.498563 12.0843494,13.498563 11.8890873,13.3033009 L10.7573899,12.1716035 C10.2325844,12.5191928 9.63837466,12.7703987 9,12.8999819 L9,14.5 C9,14.7761424 8.77614237,15 8.5,15 L7.5,15 C7.22385763,15 7,14.7761424 7,14.5 L7,12.8999819 C6.36162534,12.7703987 5.7674156,12.5191928 5.2426101,12.1716035 L4.1109127,13.3033009 C3.91565056,13.498563 3.59906807,13.498563 3.40380592,13.3033009 L2.69669914,12.5961941 C2.501437,12.4009319 2.501437,12.0843494 2.69669914,11.8890873 L3.82839654,10.7573899 C3.48080724,10.2325844 3.22960133,9.63837466 3.10001812,9 L1.5,9 C1.22385763,9 1,8.77614237 1,8.5 L1,7.5 C1,7.22385763 1.22385763,7 1.5,7 L3.10001812,7 C3.22960133,6.36162534 3.48080724,5.7674156 3.82839654,5.2426101 Z M8,11 C9.65685425,11 11,9.65685425 11,8 C11,6.34314575 9.65685425,5 8,5 C6.34314575,5 5,6.34314575 5,8 C5,9.65685425 6.34314575,11 8,11 Z"
                          id="合并形状"></path>
                </g>
            </g>
        </g>
    </g>
</svg>