<?xml version="1.0" encoding="UTF-8"?>
<svg width="24px" height="24px" viewBox="0 0 24 24" version="1.1" xmlns="http://www.w3.org/2000/svg">
    <!-- Generator: Sketch 52.3 (67297) - http://www.bohemiancoding.com/sketch -->
    <title>24-Image_ToolButton_New</title>
    <desc>Created with Sketch.</desc>
    <g id="Page-1" stroke="none" stroke-width="1" fill="none" fill-rule="evenodd">
        <g id="画板" transform="translate(-218.000000, -1899.000000)" fill-rule="nonzero">
            <g id="24" transform="translate(14.000000, 1839.000000)">
                <g id="24-Image_ToolButton_New" transform="translate(204.000000, 60.000000)">
                    <g id="分组-204" transform="translate(4.000000, 3.000000)">
                        <path d="M11,17 L11,18 L1,18 C0.44771525,18 0,17.5522847 0,17 L0,1 C0,0.44771525 0.44771525,0 1,0 L12.3128723,0 L16,3.68712769 L16,12 L15,12 L15,4.10134125 L11.8986588,1 L1,1 L1,17 L11,17 Z"
                              id="合并形状" fill="#F0F0F0"></path>
                        <path d="M11.5,2 L11.5,4.5 L11.75,4.5 L11,4.5 L11.5,5 L11.5,2 Z M14,4.5 L16,4.5 L15.5,4 L15.5,5 L16,4.5 L14,4.5 Z M11.5,2 L11.5,0 L11,0.5 L12,0.5 L11.5,0 L11.5,2 Z"
                              id="合并形状" stroke="#F0F0F0"></path>
                        <path d="M13,14 L13,10 L14,10 L14,14 L18,14 L18,15 L14,15 L14,19 L13,19 L13,15 L9,15 L9,14 L13,14 Z"
                              id="合并形状" fill="#F0F0F0"></path>
                        <path d="M3,4 L9,4 L9,5 L3,5 L3,4 Z M3,8 L11,8 L11,9 L3,9 L3,8 Z M3,12 L11,12 L11,13 L3,13 L3,12 Z"
                              id="合并形状" fill="#F0F0F0"></path>
                    </g>
                </g>
            </g>
        </g>
    </g>
</svg>