<?xml version="1.0" encoding="UTF-8"?>
<svg width="24px" height="24px" viewBox="0 0 24 24" version="1.1" xmlns="http://www.w3.org/2000/svg">
    <!-- Generator: Sketch 52.3 (67297) - http://www.bohemiancoding.com/sketch -->
    <title>24-Image_ToolButton_Convert</title>
    <desc>Created with Sketch.</desc>
    <g id="Page-1" stroke="none" stroke-width="1" fill="none" fill-rule="evenodd">
        <g id="画板" transform="translate(-132.000000, -1899.000000)" fill-rule="nonzero">
            <g id="24" transform="translate(14.000000, 1839.000000)">
                <g id="24-Image_ToolButton_Convert" transform="translate(118.000000, 60.000000)">
                    <g id="分组-200" transform="translate(3.000000, 3.000000)">
                        <path d="M4.5,7 C3.11928813,7 2,5.88071187 2,4.5 C2,3.11928813 3.11928813,2 4.5,2 C5.88071187,2 7,3.11928813 7,4.5 C7,5.88071187 5.88071187,7 4.5,7 Z M12.5,17 C11.1192881,17 10,15.8807119 10,14.5 C10,13.1192881 11.1192881,12 12.5,12 C13.8807119,12 15,13.1192881 15,14.5 C15,15.8807119 13.8807119,17 12.5,17 Z"
                              id="合并形状" fill="#F0F0F0"></path>
                        <path d="M17,1 L13,1 L13,5 L12,5 L12,0 L17,0 L17,1 Z M1,17 L5,17 L5,13 L6,13 L6,18 L1,18 L1,17 Z"
                              id="合并形状" fill="#F0F0F0"></path>
                        <path d="M13,1 C16.3108724,2.62141927 17.9663086,5.04394531 17.9663086,8.26757812" id="路径-206"
                              stroke="#F0F0F0"></path>
                        <path d="M0.21875,9.73242188 C3.5296224,11.3538411 5.18505859,13.7763672 5.18505859,17"
                              id="路径-206" stroke="#F0F0F0"
                              transform="translate(2.701904, 13.366211) rotate(-180.000000) translate(-2.701904, -13.366211) "></path>
                    </g>
                </g>
            </g>
        </g>
    </g>
</svg>