<?xml version="1.0" encoding="UTF-8"?>
<svg width="24px" height="24px" viewBox="0 0 24 24" version="1.1" xmlns="http://www.w3.org/2000/svg">
    <!-- Generator: Sketch 52.3 (67297) - http://www.bohemiancoding.com/sketch -->
    <title>24-Image_ToolButton_Reset</title>
    <desc>Created with Sketch.</desc>
    <g id="Page-1" stroke="none" stroke-width="1" fill="none" fill-rule="evenodd">
        <g id="画板" transform="translate(-367.000000, -1847.000000)" fill-rule="nonzero">
            <g id="24" transform="translate(14.000000, 1847.000000)">
                <g id="24-Image_ToolButton_Reset" transform="translate(353.000000, 0.000000)">
                    <g id="分组-179" transform="translate(2.000000, 2.000000)">
                        <path d="M4,4.54894559 L4,4 L3.14714923,4 C4.79511089,2.15875192 7.18996931,1 9.85546875,1 C14.8260315,1 18.8554688,5.02943725 18.8554688,10 C18.8554688,14.9705627 14.8260315,19 9.85546875,19 C5.2229151,19 1.40784182,15.4999505 0.910397528,11 L1.9173625,11 C2.40946059,14.9463116 5.7758511,18 9.85546875,18 C14.2737467,18 17.8554688,14.418278 17.8554688,10 C17.8554688,5.581722 14.2737467,2 9.85546875,2 C7.54345955,2 5.46052026,2.9807649 4,4.54894559 Z"
                              id="合并形状" fill="#F0F0F0"></path>
                        <path d="M3.7878418,0.580810547 L3.5378418,0.580810547 L3.5378418,0.830810547 L3.5378418,0.0808105469 L3.0378418,0.580810547 L3.7878418,0.580810547 Z M3.5378418,0.830810547 L3.5378418,3.08081055 L3.5378418,0.830810547 Z M3.5378418,3.08081055 L3.5378418,5.08081055 L4.0378418,4.58081055 L3.0378418,4.58081055 L3.5378418,5.08081055 L3.5378418,3.08081055 Z M6.0378418,0.580810547 L8.0378418,0.580810547 L7.5378418,0.0808105469 L7.5378418,1.08081055 L8.0378418,0.580810547 L6.0378418,0.580810547 Z"
                              id="合并形状" stroke="#F0F0F0"
                              transform="translate(5.537842, 2.580811) rotate(-90.000000) translate(-5.537842, -2.580811) "></path>
                    </g>
                </g>
            </g>
        </g>
    </g>
</svg>