<?xml version="1.0" encoding="UTF-8"?>
<svg width="32px" height="32px" viewBox="0 0 32 32" version="1.1" xmlns="http://www.w3.org/2000/svg">
    <!-- Generator: Sketch 53.2 (72643) - https://sketchapp.com -->
    <title>导出</title>
    <desc>Created with Sketch.</desc>
    <g id="图标需求" stroke="none" stroke-width="1" fill="none" fill-rule="evenodd">
        <g id="画板" transform="translate(-253.000000, -89.000000)" fill-rule="nonzero">
            <g id="数据集_坐标系_导出" transform="translate(253.000000, 89.000000)">
                <g id="分组" transform="translate(5.000000, 3.000000)">
                    <polygon id="路径" fill="#FFFFFF" points="0 6 22 6 22 26 0 26"></polygon>
                    <path d="M19,7 L19,6 L22,6 L22,26 L0,26 L0,6 L3,6 L3,7 L1,7 L1,25 L21,25 L21,7 L19,7 Z" id="合并形状"
                          fill="#808FA1"></path>
                    <path d="M11.6568542,4 L11.6568542,15.6568542 L9.65685425,15.6568542 L9.65685425,4 L6.5,7.15685425 L5,5.65685425 L10.6568542,6.79456491e-14 L16.3137085,5.65685425 L14.8137085,7.15685425 L11.6568542,4 Z"
                          id="合并形状" fill="#27A2DF"></path>
                </g>
            </g>
        </g>
    </g>
</svg>