<?xml version="1.0" encoding="UTF-8"?>
<svg width="24px" height="24px" viewBox="0 0 24 24" version="1.1" xmlns="http://www.w3.org/2000/svg">
    <!-- Generator: Sketch 52 (66869) - http://www.bohemiancoding.com/sketch -->
    <title>24-删除</title>
    <desc>Created with Sketch.</desc>
    <g id="Page-1" stroke="none" stroke-width="1" fill="none" fill-rule="evenodd">
        <g id="画板" transform="translate(-838.000000, -32.000000)" fill="#F0F0F0">
            <g id="24-删除" transform="translate(838.000000, 32.000000)">
                <path d="M6,8 L4,8 L4,7 L9,7 L9,4 L16,4 L16,7 L21,7 L21,8 L19,8 L19,21 L6,21 L6,8 Z M7,8 L7,20 L18,20 L18,8 L7,8 Z M10,7 L15,7 L15,5 L10,5 L10,7 Z M12,10 L13,10 L13,18 L12,18 L12,10 Z M9,11 L10,11 L10,17 L9,17 L9,11 Z M15,11 L16,11 L16,17 L15,17 L15,11 Z"
                      id="合并形状"></path>
            </g>
        </g>
    </g>
</svg>