<?xml version="1.0" encoding="UTF-8"?>
<svg width="24px" height="24px" viewBox="0 0 24 24" version="1.1" xmlns="http://www.w3.org/2000/svg">
    <!-- Generator: Sketch 52.3 (67297) - http://www.bohemiancoding.com/sketch -->
    <title>24-Image_ToolButton_Save</title>
    <desc>Created with Sketch.</desc>
    <g id="Page-1" stroke="none" stroke-width="1" fill="none" fill-rule="evenodd">
        <g id="画板" transform="translate(-189.000000, -1899.000000)" fill-rule="nonzero">
            <g id="24" transform="translate(14.000000, 1839.000000)">
                <g id="24-Image_ToolButton_Save" transform="translate(175.000000, 60.000000)">
                    <g id="分组-203" transform="translate(3.000000, 3.000000)">
                        <path d="M13.1057655,0.5 L1,0.5 C0.723857625,0.5 0.5,0.723857625 0.5,1 L0.5,17 C0.5,17.2761424 0.723857625,17.5 1,17.5 L17,17.5 C17.2761424,17.5 17.5,17.2761424 17.5,17 L17.5,4.89423447 L13.1057655,0.5 Z"
                              id="合并形状" stroke="#F0F0F0"></path>
                        <path d="M4,11 L4,17 L14,17 L14,11 L4,11 Z M3,10 L15,10 L15,18 L3,18 L3,10 Z M5,0 L5,5 L14,5 L14,6 L4,6 L4,0 L5,0 Z"
                              id="合并形状" fill="#F0F0F0"></path>
                    </g>
                </g>
            </g>
        </g>
    </g>
</svg>