<?xml version="1.0" encoding="UTF-8"?>
<svg width="24px" height="24px" viewBox="0 0 24 24" version="1.1" xmlns="http://www.w3.org/2000/svg">
    <!-- Generator: Sketch 54 (76480) - https://sketchapp.com -->
    <title>Import coordinate pairs_dark</title>
    <desc>Created with Sketch.</desc>
    <g id="图标汇总" stroke="none" stroke-width="1" fill="none" fill-rule="evenodd">
        <g id="画板" transform="translate(-1193.000000, -1818.000000)" fill="#F0F0F0">
            <g id="Import-coordinate-pairs" transform="translate(1193.000000, 1818.000000)">
                <path d="M10,3 L21,3 L21,14 L10,14 L10,3 Z M18.952,6.68 L19.806,5.672 C19.2179971,5.38266522 18.6766691,5.18200056 18.182,5.07 C17.6873309,4.95799944 17.1646694,4.902 16.614,4.902 C16.2033313,4.902 15.7926687,4.97666592 15.382,5.126 C14.9713313,5.27533408 14.6050016,5.45966557 14.283,5.679 C13.9609984,5.89833443 13.6996677,6.13399874 13.499,6.386 C13.2983323,6.63800126 13.198,6.86199902 13.198,7.058 C13.198,7.20733408 13.2189998,7.34033275 13.261,7.457 C13.3030002,7.57366725 13.3776661,7.68799944 13.485,7.8 C13.5923339,7.91200056 13.7299992,8.02166613 13.898,8.129 C14.0660008,8.23633387 14.2759987,8.35066606 14.528,8.472 C14.9013352,8.6586676 15.3119978,8.87099881 15.76,9.109 C16.2080022,9.34700119 16.6699976,9.61999846 17.146,9.928 C16.6419975,10.5346697 16.0026705,10.838 15.228,10.838 C14.8546648,10.838 14.4253358,10.7656674 13.94,10.621 C13.4546642,10.4763326 12.9273362,10.2826679 12.358,10.04 L11.56,11.132 C11.7933345,11.2533339 12.0406654,11.3629995 12.302,11.461 C12.5633346,11.5590005 12.8269987,11.6429996 13.093,11.713 C13.3590013,11.7830003 13.6179987,11.8366665 13.87,11.874 C14.1220013,11.9113335 14.3553323,11.93 14.57,11.93 C15.0273356,11.93 15.4799978,11.8530008 15.928,11.699 C16.3760022,11.5449992 16.7773316,11.3490012 17.132,11.111 C17.4866684,10.8729988 17.7736656,10.6116681 17.993,10.327 C18.2123344,10.0423319 18.322,9.76466802 18.322,9.494 C18.322,9.38199944 18.2940003,9.27466718 18.238,9.172 C18.1819997,9.06933282 18.0840007,8.95733394 17.944,8.836 C17.8039993,8.71466606 17.6103346,8.58166739 17.363,8.437 C17.1156654,8.29233261 16.796002,8.12200098 16.404,7.926 C16.0586649,7.74866578 15.7763344,7.60166725 15.557,7.485 C15.3376656,7.36833275 15.1580007,7.26566711 15.018,7.177 C14.8779993,7.08833289 14.7683337,7.00900035 14.689,6.939 C14.6096663,6.86899965 14.5373337,6.79200042 14.472,6.708 C14.6866677,6.43733198 14.9269987,6.22733408 15.193,6.078 C15.4590013,5.92866592 15.7506651,5.854 16.068,5.854 C16.2173341,5.854 16.3689992,5.86333324 16.523,5.882 C16.6770008,5.90066676 16.8589989,5.94033303 17.069,6.001 C17.2790011,6.06166697 17.5333318,6.14566613 17.832,6.253 C18.1306682,6.36033387 18.5039978,6.50266578 18.952,6.68 Z M7.5,21 C5.56700338,21 4,19.4329966 4,17.5 C4,15.5670034 5.56700338,14 7.5,14 C9.43299662,14 11,15.5670034 11,17.5 C11,19.4329966 9.43299662,21 7.5,21 Z"
                      id="形状"></path>
            </g>
        </g>
    </g>
</svg>