<?xml version="1.0" encoding="UTF-8"?>
<svg width="24px" height="24px" viewBox="0 0 24 24" version="1.1" xmlns="http://www.w3.org/2000/svg">
    <!-- Generator: Sketch 54 (76480) - https://sketchapp.com -->
    <title>switch columns_dark</title>
    <desc>Created with Sketch.</desc>
    <g id="图标汇总" stroke="none" stroke-width="1" fill="none" fill-rule="evenodd">
        <g id="画板" transform="translate(-1222.000000, -1818.000000)" fill="#F0F0F0" fill-rule="nonzero">
            <g id="switch-columns_dark" transform="translate(1222.000000, 1818.000000)">
                <path d="M19.2243992,17.9778074 L13.4868282,18.0427673 L5.49376015,9.99291992 L3.01599121,9.99291992 L3.01599121,8.99291992 L5.91004845,8.99291992 L13.8984257,17.0380432 L19.4403504,16.9752984 L16.6578827,14.364631 C16.4565026,14.1756849 16.4464228,13.8592629 16.635369,13.6578827 C16.8243151,13.4565026 17.1407371,13.4464228 17.3421173,13.635369 L21.3281026,17.3752441 L17.3421173,21.1151193 C17.1407371,21.3040654 16.8243151,21.2939857 16.635369,21.0926056 C16.4464228,20.8912254 16.4565026,20.5748034 16.6578827,20.3858573 L19.2243992,17.9778074 Z M19.2920143,6.07666016 L16.6659685,3.71897621 C16.4604897,3.53449573 16.4434671,3.21837122 16.6279476,3.01289236 C16.8124281,2.8074135 17.1285526,2.79039096 17.3340315,2.97487144 L21.3338895,6.56597451 L17.3446841,10.3622055 C17.1446436,10.5525693 16.8281583,10.5447247 16.6377945,10.3446841 C16.4474307,10.1446436 16.4552753,9.82815827 16.6553159,9.63779448 L19.3466407,7.07666016 L13.7609125,7.07666016 L10.3655921,11.4709459 L9.65269437,10.7580482 L13.2698492,6.07666016 L19.2920143,6.07666016 Z M7.84216515,14.7368113 L6.05668885,17.0476074 L3.0637207,17.0476074 L3.0637207,16.0476074 L5.56562561,16.0476074 L7.12926741,14.0239136 L7.84216515,14.7368113 Z"
                      id="形状"></path>
            </g>
        </g>
    </g>
</svg>